<svg width="30" height="22" viewBox="0 0 30 22" fill="none" xmlns="http://www.w3.org/2000/svg">
<path d="M5.34698 6.54745C5.68003 6.13086 5.906 5.57157 5.84644 5C5.35891 5.02425 4.76398 5.32167 4.41955 5.73853C4.11025 6.09556 3.83654 6.67829 3.90793 7.22587C4.45513 7.27333 5.00194 6.95233 5.34698 6.54745Z" fill="black"/>
<path d="M5.8396 7.33276C5.04483 7.28541 4.36906 7.78383 3.98949 7.78383C3.60975 7.78383 3.02852 7.35663 2.39988 7.36812C1.58168 7.38017 0.822479 7.84278 0.407272 8.57855C-0.446733 10.0505 0.181906 12.2339 1.01237 13.4326C1.41565 14.0257 1.90174 14.6787 2.54215 14.6553C3.14725 14.6315 3.38444 14.2634 4.11993 14.2634C4.85493 14.2634 5.06858 14.6553 5.7091 14.6434C6.37338 14.6315 6.78864 14.05 7.19191 13.4563C7.65458 12.7802 7.84398 12.1274 7.85586 12.0916C7.84392 12.0797 6.57499 11.5929 6.56322 10.1332C6.55123 8.91104 7.55949 8.32964 7.60695 8.29362C7.03765 7.4516 6.14801 7.35663 5.8396 7.33276Z" fill="black"/>
<path d="M13.7604 5.67871C15.4879 5.67871 16.6907 6.86947 16.6907 8.60311C16.6907 10.3429 15.463 11.5399 13.7171 11.5399H11.8045V14.5815H10.4226V5.67871H13.7604ZM11.8044 10.38H13.39C14.5931 10.38 15.2778 9.73221 15.2778 8.6093C15.2778 7.4865 14.5931 6.84483 13.3962 6.84483H11.8044V10.38Z" fill="black"/>
<path d="M17.0515 12.7368C17.0515 11.6016 17.9214 10.9044 19.464 10.8181L21.2407 10.7132V10.2135C21.2407 9.49166 20.7533 9.05977 19.9391 9.05977C19.1677 9.05977 18.6864 9.42989 18.5694 10.0099H17.3107C17.3848 8.83761 18.3842 7.97388 19.9883 7.97388C21.5615 7.97388 22.5672 8.80678 22.5672 10.1085V14.5815H21.29V13.5142H21.2593C20.883 14.2361 20.0623 14.6925 19.211 14.6925C17.94 14.6925 17.0515 13.9028 17.0515 12.7368ZM21.2407 12.1508V11.6387L19.6427 11.7374C18.8468 11.793 18.3965 12.1446 18.3965 12.6999C18.3965 13.2674 18.8653 13.6377 19.581 13.6377C20.5126 13.6375 21.2407 12.9959 21.2407 12.1508Z" fill="black"/>
<path d="M23.7733 16.9694V15.8897C23.8718 15.9144 24.0939 15.9144 24.205 15.9144C24.8219 15.9144 25.1551 15.6553 25.3586 14.989C25.3586 14.9766 25.476 14.5941 25.476 14.5879L23.1316 8.09131H24.5751L26.2164 13.3725H26.241L27.8823 8.09131H29.2888L26.8578 14.921C26.3027 16.4944 25.6611 17.0003 24.3161 17.0003C24.205 17.0003 23.8718 16.9879 23.7733 16.9694Z" fill="black"/>
</svg>
