<svg width="124" height="18" viewBox="0 0 124 18" fill="none" xmlns="http://www.w3.org/2000/svg">
<path d="M0.154 17L6.864 1.6H9.35L16.06 17H12.958L11.242 13.106H4.95L3.256 17H0.154ZM6.182 10.312H10.032L9.042 7.892C8.646 6.902 8.316 5.956 8.14 5.186H8.096C7.92 5.956 7.568 6.946 7.172 7.892L6.182 10.312ZM21.5662 17.022L16.3522 4.878H19.4542L22.1162 11.258C22.4022 11.94 22.5782 12.622 22.7542 13.304H22.7982C22.9742 12.666 23.1722 11.918 23.4362 11.258L26.1202 4.878H29.2222L23.9862 17.022H21.5662ZM35.0902 17.396C31.7682 17.396 30.0522 15.504 30.0522 13.194C30.0522 9.806 33.4182 8.904 36.0582 8.904C36.5862 8.904 37.3122 8.97 38.2142 9.124V8.838C38.2142 8.728 38.2142 8.64 38.1922 8.486C38.0602 7.54 37.3562 7.188 36.2342 7.188C35.0902 7.188 33.3522 7.628 32.0982 8.266L31.1742 5.78C32.4502 5.142 34.5842 4.526 36.2342 4.526C39.1382 4.526 40.7882 5.824 41.0082 8.288C41.0522 8.728 41.0522 9.168 41.0522 9.718V17H38.2142C38.2142 16.384 38.2362 16.318 38.3902 15.768L38.3462 15.746C37.6202 16.67 36.3882 17.396 35.0902 17.396ZM35.0022 14.756C37.3122 14.756 38.2142 13.062 38.2142 11.874V11.676C37.5102 11.5 36.7622 11.478 36.0362 11.478C34.8262 11.478 32.9122 11.786 32.9122 13.238C32.9122 14.338 33.9682 14.756 35.0022 14.756ZM47.2512 17.264C45.4692 17.264 44.2812 16.406 43.9292 14.778C43.7972 14.184 43.7972 13.216 43.7972 12.358V7.54H42.5212V4.878H43.8852L44.3032 1.358H46.6132V4.878H49.8692V7.54H46.6132V12.358C46.6132 12.842 46.6132 13.568 46.7232 14.052C46.8112 14.448 47.0752 14.58 47.5812 14.58C47.8452 14.58 49.3632 14.382 49.8692 14.25V16.912C49.3192 17.022 47.6912 17.264 47.2512 17.264ZM55.7152 17.396C52.3932 17.396 50.6772 15.504 50.6772 13.194C50.6772 9.806 54.0432 8.904 56.6832 8.904C57.2112 8.904 57.9372 8.97 58.8392 9.124V8.838C58.8392 8.728 58.8392 8.64 58.8172 8.486C58.6852 7.54 57.9812 7.188 56.8592 7.188C55.7152 7.188 53.9772 7.628 52.7232 8.266L51.7992 5.78C53.0752 5.142 55.2092 4.526 56.8592 4.526C59.7632 4.526 61.4132 5.824 61.6332 8.288C61.6772 8.728 61.6772 9.168 61.6772 9.718V17H58.8392C58.8392 16.384 58.8612 16.318 59.0152 15.768L58.9712 15.746C58.2452 16.67 57.0132 17.396 55.7152 17.396ZM55.6272 14.756C57.9372 14.756 58.8392 13.062 58.8392 11.874V11.676C58.1352 11.5 57.3872 11.478 56.6612 11.478C55.4512 11.478 53.5372 11.786 53.5372 13.238C53.5372 14.338 54.5932 14.756 55.6272 14.756ZM64.3122 17V4.878H67.1062C67.1062 5.494 67.0622 6.352 66.9302 6.99L66.9742 7.012C67.3922 5.67 68.8002 4.526 70.8242 4.526C71.0662 4.526 71.2422 4.548 71.5062 4.57V7.54C71.1762 7.298 70.7582 7.188 70.2082 7.188C68.5362 7.188 67.3922 8.97 67.2602 10.356C67.2382 10.642 67.1942 11.412 67.1942 11.698V17H64.3122ZM76.428 17.022L71.61 1.6H74.58L77 9.498C77.308 10.466 77.572 11.5 77.726 12.468H77.748C77.902 11.522 78.21 10.488 78.474 9.608L80.872 1.578H82.984L85.426 9.718C85.668 10.488 85.954 11.544 86.108 12.446H86.13C86.284 11.588 86.504 10.686 86.746 9.916L89.298 1.6H92.268L87.45 17.022H84.744L83.182 11.896C82.302 8.992 82.06 7.628 81.928 6.792H81.906C81.796 7.65 81.554 8.992 80.674 11.896L79.112 17.022H76.428ZM97.4808 17.396C94.1588 17.396 92.4428 15.504 92.4428 13.194C92.4428 9.806 95.8088 8.904 98.4488 8.904C98.9768 8.904 99.7028 8.97 100.605 9.124V8.838C100.605 8.728 100.605 8.64 100.583 8.486C100.451 7.54 99.7468 7.188 98.6248 7.188C97.4808 7.188 95.7428 7.628 94.4888 8.266L93.5648 5.78C94.8408 5.142 96.9748 4.526 98.6248 4.526C101.529 4.526 103.179 5.824 103.399 8.288C103.443 8.728 103.443 9.168 103.443 9.718V17H100.605C100.605 16.384 100.627 16.318 100.781 15.768L100.737 15.746C100.011 16.67 98.7788 17.396 97.4808 17.396ZM97.3928 14.756C99.7028 14.756 100.605 13.062 100.605 11.874V11.676C99.9008 11.5 99.1528 11.478 98.4268 11.478C97.2168 11.478 95.3028 11.786 95.3028 13.238C95.3028 14.338 96.3588 14.756 97.3928 14.756ZM106.078 17V0.918H108.894V17H106.078ZM111.556 17V0.94H114.372V9.74C114.526 9.542 114.856 9.124 115.208 8.75L119.212 4.548H122.842L117.65 10.026C120.224 13.238 120.686 13.876 123.194 17H119.608L115.78 11.984L114.372 13.524V17H111.556Z" fill="white"/>
</svg>
