<svg width="22" height="22" viewBox="0 0 22 22" fill="none" xmlns="http://www.w3.org/2000/svg">
<path d="M11.3388 1.97086L19.5888 5.27084C19.9097 5.39917 20.1663 5.78417 20.1663 6.12333V9.16667C20.1663 9.67084 19.7538 10.0833 19.2497 10.0833H2.74967C2.24551 10.0833 1.83301 9.67084 1.83301 9.16667V6.12333C1.83301 5.78417 2.08968 5.39917 2.41051 5.27084L10.6605 1.97086C10.8438 1.89753 11.1555 1.89753 11.3388 1.97086Z" stroke="#2D2D2D" stroke-width="1.375" stroke-miterlimit="10" stroke-linecap="round" stroke-linejoin="round"/>
<path d="M20.1663 20.1667H1.83301V17.4167C1.83301 16.9125 2.24551 16.5 2.74967 16.5H19.2497C19.7538 16.5 20.1663 16.9125 20.1663 17.4167V20.1667Z" stroke="#2D2D2D" stroke-width="1.375" stroke-miterlimit="10" stroke-linecap="round" stroke-linejoin="round"/>
<path d="M3.66699 16.5V10.0833" stroke="#2D2D2D" stroke-width="1.375" stroke-miterlimit="10" stroke-linecap="round" stroke-linejoin="round"/>
<path d="M7.33301 16.5V10.0833" stroke="#2D2D2D" stroke-width="1.375" stroke-miterlimit="10" stroke-linecap="round" stroke-linejoin="round"/>
<path d="M11 16.5V10.0833" stroke="#2D2D2D" stroke-width="1.375" stroke-miterlimit="10" stroke-linecap="round" stroke-linejoin="round"/>
<path d="M14.667 16.5V10.0833" stroke="#2D2D2D" stroke-width="1.375" stroke-miterlimit="10" stroke-linecap="round" stroke-linejoin="round"/>
<path d="M18.333 16.5V10.0833" stroke="#2D2D2D" stroke-width="1.375" stroke-miterlimit="10" stroke-linecap="round" stroke-linejoin="round"/>
<path d="M0.916992 20.1667H21.0837" stroke="#2D2D2D" stroke-width="1.375" stroke-miterlimit="10" stroke-linecap="round" stroke-linejoin="round"/>
<path d="M11 7.79166C11.7594 7.79166 12.375 7.17605 12.375 6.41666C12.375 5.65726 11.7594 5.04166 11 5.04166C10.2406 5.04166 9.625 5.65726 9.625 6.41666C9.625 7.17605 10.2406 7.79166 11 7.79166Z" stroke="#2D2D2D" stroke-width="1.375" stroke-miterlimit="10" stroke-linecap="round" stroke-linejoin="round"/>
</svg>
