<svg width="30" height="30" viewBox="0 0 30 30" fill="none" xmlns="http://www.w3.org/2000/svg">
<path d="M9.99902 2.49998V6.24998" stroke="#2D2D2D" stroke-width="1.875" stroke-miterlimit="10" stroke-linecap="round" stroke-linejoin="round"/>
<path d="M20.001 2.49998V6.24998" stroke="#2D2D2D" stroke-width="1.875" stroke-miterlimit="10" stroke-linecap="round" stroke-linejoin="round"/>
<path d="M4.37402 11.3625H25.624" stroke="#2D2D2D" stroke-width="1.875" stroke-miterlimit="10" stroke-linecap="round" stroke-linejoin="round"/>
<path d="M26.25 10.625V21.25C26.25 25 24.375 27.5 20 27.5H10C5.625 27.5 3.75 25 3.75 21.25V10.625C3.75 6.875 5.625 4.375 10 4.375H20C24.375 4.375 26.25 6.875 26.25 10.625Z" stroke="#2D2D2D" stroke-width="1.875" stroke-miterlimit="10" stroke-linecap="round" stroke-linejoin="round"/>
<path d="M11.83 22.12C10.75 22.12 9.75 21.6 9.23 21.18L9.92 20.11C10.48 20.53 11.16 20.86 11.79 20.86C12.48 20.86 13.22 20.45 13.22 19.67V19.65C13.22 19.2 12.91 18.7 11.89 18.7C11.75 18.7 11.47 18.73 11.08 18.76L10.66 17.98L11.58 17.03C12.06 16.53 12.34 16.32 12.48 16.25L12.47 16.23C12.26 16.25 11.87 16.26 11.42 16.26H9.81V15H14.31V15.93L13.33 16.99C13.02 17.32 12.78 17.45 12.61 17.56L12.62 17.58C13.96 17.78 14.52 18.75 14.52 19.6V19.62C14.52 21.09 13.39 22.12 11.83 22.12ZM17.9961 22.12C16.1661 22.12 15.2061 20.25 15.2061 18.49C15.2061 16.74 16.1561 14.89 17.9961 14.89C19.8261 14.89 20.7761 16.74 20.7761 18.49C20.7761 20.25 19.8161 22.12 17.9961 22.12ZM17.9961 20.86C19.1061 20.86 19.4661 19.44 19.4661 18.5C19.4661 17.54 19.0361 16.15 17.9961 16.15C16.9561 16.15 16.5161 17.54 16.5161 18.5C16.5161 19.44 16.8761 20.86 17.9961 20.86Z" fill="#2D2D2D"/>
</svg>
