<svg width="18" height="18" viewBox="0 0 18 18" fill="none" xmlns="http://www.w3.org/2000/svg">
<g clip-path="url(#clip0_136_2486)">
<path d="M9 7.20005C8.64543 7.20005 8.29433 7.26989 7.96675 7.40557C7.63918 7.54126 7.34153 7.74014 7.09081 7.99086C6.84009 8.24158 6.64121 8.53922 6.50552 8.8668C6.36984 9.19438 6.3 9.54548 6.3 9.90005C6.3 10.2546 6.36984 10.6057 6.50552 10.9333C6.64121 11.2609 6.84009 11.5585 7.09081 11.8092C7.34153 12.06 7.63918 12.2588 7.96675 12.3945C8.29433 12.5302 8.64543 12.6 9 12.6C9.71608 12.6 10.4028 12.3156 10.9092 11.8092C11.4155 11.3029 11.7 10.6161 11.7 9.90005C11.7 9.18396 11.4155 8.49721 10.9092 7.99086C10.4028 7.48451 9.71608 7.20005 9 7.20005ZM16.2 4.50005H14.04C13.8845 4.49296 13.7345 4.44064 13.6084 4.34951C13.4823 4.25838 13.3855 4.13241 13.3299 3.98705L12.771 2.31215C12.715 2.16695 12.618 2.0412 12.4917 1.95026C12.3655 1.85932 12.2154 1.80712 12.06 1.80005H5.94C5.643 1.80005 5.3226 2.03045 5.2299 2.31125L4.6701 3.98705C4.61444 4.13234 4.51762 4.25825 4.3915 4.34937C4.26537 4.44048 4.11542 4.49285 3.96 4.50005H1.8C0.81 4.50005 0 5.31005 0 6.30005V14.4C0 15.39 0.81 16.2 1.8 16.2H16.2C17.19 16.2 18 15.39 18 14.4V6.30005C18 5.31005 17.19 4.50005 16.2 4.50005ZM9 14.4C7.80653 14.4 6.66193 13.9259 5.81802 13.082C4.97411 12.2381 4.5 11.0935 4.5 9.90005C4.5 8.70657 4.97411 7.56198 5.81802 6.71807C6.66193 5.87415 7.80653 5.40005 9 5.40005C10.1935 5.40005 11.3381 5.87415 12.182 6.71807C13.0259 7.56198 13.5 8.70657 13.5 9.90005C13.5 11.0935 13.0259 12.2381 12.182 13.082C11.3381 13.9259 10.1935 14.4 9 14.4ZM15.75 7.38005C15.5829 7.38005 15.4227 7.31367 15.3045 7.19553C15.1864 7.07738 15.12 6.91714 15.12 6.75005C15.12 6.58296 15.1864 6.42272 15.3045 6.30457C15.4227 6.18642 15.5829 6.12005 15.75 6.12005C15.9171 6.12005 16.0773 6.18642 16.1955 6.30457C16.3136 6.42272 16.38 6.58296 16.38 6.75005C16.38 6.91714 16.3136 7.07738 16.1955 7.19553C16.0773 7.31367 15.9171 7.38005 15.75 7.38005Z" fill="#2D2D2D"/>
</g>
<defs>
<clipPath id="clip0_136_2486">
<rect width="18" height="18" fill="white"/>
</clipPath>
</defs>
</svg>
