<svg width="122" height="24" viewBox="0 0 122 24" fill="none" xmlns="http://www.w3.org/2000/svg">
<path d="M23.6336 4H2.36641C1.61176 4 1 4.61176 1 5.36641V18.0912C1 18.8458 1.61176 19.4576 2.36641 19.4576H23.6336C24.3882 19.4576 25 18.8458 25 18.0912V5.36641C25 4.61176 24.3882 4 23.6336 4Z" fill="#F9F9F9" stroke="#ABABAB" stroke-width="0.503021" stroke-linecap="round" stroke-linejoin="round"/>
<path fill-rule="evenodd" clip-rule="evenodd" d="M10.8853 8.83382L9.93459 14.6768H11.4557L12.4066 8.83382H10.8853ZM8.65476 8.83382L7.20447 12.8526L7.03292 11.9872L7.03304 11.9875L6.99524 11.7935C6.81972 11.4152 6.4132 10.6963 5.6456 10.0827C5.43081 9.91153 5.20468 9.75506 4.96875 9.6144L6.28683 14.6768H7.87171L10.292 8.83382H8.65476ZM14.5914 10.4559C14.5914 9.79535 16.0729 9.88023 16.7238 10.2389L16.9409 8.98402C16.9409 8.98402 16.271 8.72925 15.5727 8.72925C14.8178 8.72925 13.0251 9.05939 13.0251 10.6635C13.0251 12.1732 15.1291 12.192 15.1291 12.9846C15.1291 13.7772 13.2421 13.6355 12.6193 13.1355L12.393 14.4472C12.393 14.4472 13.0722 14.7774 14.1102 14.7774C15.1481 14.7774 16.7144 14.2396 16.7144 12.777C16.7144 11.2579 14.5914 11.1164 14.5914 10.4559ZM20.7987 8.83382H19.5757C19.011 8.83382 18.8735 9.26927 18.8735 9.26927L16.605 14.6768H18.1905L18.5076 13.8089H20.4415L20.6199 14.6768H22.0166L20.7987 8.83382ZM18.946 12.6099L19.7453 10.4233L20.195 12.6099H18.946Z" fill="#005BAC"/>
<path fill-rule="evenodd" clip-rule="evenodd" d="M6.54352 9.38403C6.54352 9.38403 6.48056 8.85669 5.80837 8.85669H3.36625L3.33765 8.9558C3.33765 8.9558 4.51152 9.19509 5.63771 10.0916C6.71394 10.9485 7.06502 12.0166 7.06502 12.0166L6.54352 9.38403Z" fill="#F6AC1D"/>
<g clip-path="url(#clip0_136_2488)">
<path d="M48.2449 17.831H41.7549V6.16797H48.2449V17.831Z" fill="#FF5F00"/>
<path d="M42.167 12.0001C42.166 10.877 42.4206 9.7683 42.9114 8.75806C43.4022 7.74783 44.1164 6.86251 45 6.16911C43.9059 5.30923 42.5919 4.77452 41.2082 4.62607C39.8246 4.47762 38.427 4.72142 37.1754 5.32962C35.9237 5.93782 34.8684 6.88588 34.1301 8.06545C33.3917 9.24501 33.0001 10.6085 33 12.0001C33.0003 13.3915 33.3919 14.7548 34.1302 15.9342C34.8685 17.1136 35.9237 18.0615 37.1752 18.6697C38.4266 19.2779 39.824 19.5217 41.2075 19.3734C42.591 19.2252 43.9048 18.6907 44.999 17.8311C44.1157 17.1375 43.4018 16.2521 42.9111 15.2419C42.4205 14.2317 42.166 13.1232 42.167 12.0001Z" fill="#EB001B"/>
<path d="M57 12.0001C56.9999 13.3917 56.6083 14.7552 55.8699 15.9348C55.1316 17.1143 54.0763 18.0624 52.8246 18.6706C51.573 19.2788 50.1754 19.5226 48.7918 19.3741C47.4081 19.2257 46.0941 18.691 45 17.8311C46.725 16.4731 47.833 14.3661 47.833 12.0001C47.833 9.63411 46.725 7.52711 45 6.16911C46.0941 5.30923 47.4081 4.77452 48.7918 4.62607C50.1754 4.47762 51.573 4.72142 52.8246 5.32962C54.0763 5.93782 55.1316 6.88588 55.8699 8.06545C56.6083 9.24501 56.9999 10.6085 57 12.0001Z" fill="#F79E1B"/>
</g>
<path d="M88.3822 4.22339H65.6178C65.2762 4.22339 65 4.50002 65 4.84124V19.1588C65 19.5 65.2762 19.7771 65.6178 19.7771H88.3822C88.7238 19.7771 89 19.5004 89 19.1592V4.84124C89 4.50002 88.7238 4.22339 88.3822 4.22339ZM70.904 11.3299L70.8326 11.168V11.1769C70.8326 11.3847 70.6639 11.5534 70.4561 11.5534H69.3475C69.1945 11.5534 69.0572 11.4612 68.999 11.3201L68.8856 11.0448H68.2541L68.139 11.3218C68.0812 11.4621 67.9435 11.5538 67.7922 11.5538H67.1999C67.0732 11.5538 66.9551 11.4901 66.8854 11.3847C66.8161 11.2785 66.8038 11.1451 66.854 11.0291L67.8296 8.74846C67.8887 8.61036 68.0251 8.52027 68.1759 8.52027H68.985C69.1358 8.52027 69.2714 8.60993 69.3313 8.74803L69.5357 9.2248V8.89718C69.5357 8.68939 69.704 8.5207 69.9122 8.5207H70.8024C70.9486 8.5207 71.0824 8.60653 71.1445 8.73954L71.501 9.51376L71.8248 8.75058C71.8834 8.61121 72.0203 8.5207 72.1707 8.5207H73.0792C73.1557 8.5207 73.2224 8.54917 73.2823 8.58826C73.3418 8.54917 73.4085 8.5207 73.4854 8.5207H75.3058C75.3763 8.5207 75.4388 8.54534 75.4945 8.57891C75.551 8.54534 75.613 8.5207 75.6836 8.5207H76.9371C77.2613 8.5207 77.5295 8.53217 77.7857 8.68005C77.8116 8.69577 77.8303 8.71574 77.8537 8.73274C77.9149 8.60866 78.0407 8.5207 78.189 8.5207H78.7452C78.9334 8.5207 79.083 8.66092 79.1106 8.84067C79.3545 8.62948 79.6868 8.5207 80.1339 8.5207H80.6612C80.7449 8.5207 80.8235 8.54832 80.886 8.59549C80.9493 8.54789 81.0279 8.5207 81.1112 8.5207H81.9275C82.0779 8.5207 82.2135 8.61078 82.2734 8.74888L82.4735 9.21716V8.89718C82.4735 8.68939 82.6422 8.5207 82.8504 8.5207H83.6803C83.8125 8.5207 83.9344 8.58954 84.0024 8.70257L84.2616 9.13217V8.89676C84.2616 8.68897 84.4307 8.52027 84.639 8.52027H85.1965C85.4047 8.52027 85.5729 8.68897 85.5729 8.89676V11.1774C85.5729 11.3851 85.4038 11.5538 85.1965 11.5538H84.4248C84.2918 11.5538 84.1698 11.485 84.1014 11.372L83.767 10.8174V11.1774C83.767 11.3851 83.5979 11.5538 83.3905 11.5538H82.281C82.1293 11.5538 81.9929 11.4625 81.9334 11.3223L81.8183 11.0452H81.1902L81.0789 11.3184C81.0224 11.4608 80.8839 11.5543 80.7313 11.5543H80.0931C79.8504 11.5543 79.4161 11.5105 79.1064 11.2509C79.0711 11.4225 78.9266 11.5543 78.7443 11.5543H78.1877C78.1261 11.5543 78.0695 11.5356 78.0173 11.5088C77.9659 11.5356 77.9102 11.5543 77.8482 11.5543H77.2983C77.0914 11.5543 76.9231 11.3873 76.9214 11.1808L76.9193 10.8931L76.9201 10.8429C76.9201 10.8123 76.921 10.7664 76.9184 10.7278C76.8933 10.7261 76.8598 10.7248 76.8126 10.7248H76.6048V11.1778C76.6048 11.3856 76.4361 11.5543 76.2283 11.5543H75.6827C75.6122 11.5543 75.5506 11.5296 75.4936 11.4961C75.438 11.5296 75.3755 11.5543 75.305 11.5543H73.4846C73.4076 11.5543 73.3409 11.5254 73.2814 11.4867C73.2215 11.5254 73.1548 11.5543 73.0783 11.5543H72.5195C72.3113 11.5543 72.1431 11.386 72.1431 11.1782V11.1689L72.0708 11.3303C72.0105 11.4667 71.8762 11.5547 71.7266 11.5547H71.2477C71.099 11.5547 70.9639 11.4663 70.904 11.3299ZM85.9452 15.4789H84.8837C84.7282 15.4789 84.5952 15.3842 84.5374 15.2499C84.3305 15.3965 84.0568 15.4789 83.7181 15.4789H82.6567C82.5967 15.4789 82.5432 15.4623 82.4931 15.4381C82.4433 15.4623 82.3894 15.4789 82.3299 15.4789H80.5112C80.4504 15.4789 80.3948 15.4623 80.3446 15.4364C80.2941 15.4615 80.2392 15.4789 80.1789 15.4789H79.632C79.4234 15.4789 79.2551 15.3102 79.2551 15.1024V14.771C79.2559 14.7387 79.2559 14.6894 79.2534 14.649C79.2283 14.6473 79.1931 14.6456 79.1429 14.6456H78.9373V15.1024C78.9373 15.3106 78.7686 15.4789 78.5608 15.4789H78.013C77.8044 15.4789 77.6361 15.3102 77.6361 15.1024V14.5228C77.4428 14.638 77.1759 14.7136 76.8079 14.7136H76.505V15.1024C76.505 15.3106 76.3363 15.4789 76.128 15.4789H75.0687C74.9612 15.4789 74.8584 15.433 74.787 15.3527L74.3922 14.9082L73.9762 15.3587C73.9048 15.4356 73.805 15.4798 73.7 15.4798H71.5409C71.3327 15.4798 71.1644 15.3106 71.1644 15.1029V12.8223C71.1644 12.6136 71.3331 12.4453 71.5409 12.4453H73.7327C73.8402 12.4453 73.9418 12.4904 74.0127 12.5703L74.4088 13.0109L74.8214 12.5656C74.8928 12.4887 74.9926 12.4453 75.0976 12.4453H76.839C77.2205 12.4453 77.4891 12.5299 77.6799 12.6548C77.7415 12.5316 77.8656 12.4453 78.013 12.4453H79.2717C79.5615 12.4453 79.8419 12.4564 80.105 12.597C80.1334 12.6136 80.1517 12.6353 80.178 12.6531C80.2401 12.5312 80.3629 12.4453 80.5099 12.4453H82.3286C82.4697 12.4453 82.5887 12.5265 82.6533 12.6417C82.8326 12.5201 83.0705 12.4453 83.3705 12.4453H84.4626C84.6271 12.4453 84.7622 12.5511 84.8144 12.6969C85.0014 12.5452 85.2568 12.4453 85.5972 12.4453H86.6901C86.8979 12.4453 87.0661 12.614 87.0661 12.8223V13.3075C87.0661 13.4405 86.9982 13.5574 86.8941 13.6245C86.897 13.6279 86.9013 13.6317 86.9051 13.6356C87.0921 13.8276 87.1771 14.0647 87.1771 14.3834C87.1771 15.0693 86.7169 15.4798 85.9452 15.4789Z" fill="#016FD0"/>
<path d="M77.4867 10.1191C77.6287 10.063 77.8709 9.87474 77.8709 9.51142C77.8709 9.25689 77.7672 9.10816 77.5955 9.00618C77.4188 8.9042 77.2135 8.89697 76.9352 8.89697H75.6816V11.1776H76.2272V10.3485H76.8115C77.0078 10.3485 77.1294 10.366 77.2088 10.4458C77.3078 10.5555 77.2947 10.7526 77.2947 10.8899L77.2972 11.1776H77.8471V10.7293C77.8471 10.5257 77.8339 10.4246 77.7566 10.3111C77.7081 10.2444 77.6061 10.1645 77.4867 10.1191ZM77.1587 9.83182C77.0831 9.87728 76.9947 9.87856 76.8889 9.87856H76.2264L76.2268 9.37247H76.8982C76.9925 9.37247 77.092 9.37714 77.1566 9.41369C77.2271 9.44683 77.2709 9.51737 77.2709 9.6151C77.2709 9.71454 77.2288 9.79485 77.1587 9.83182Z" fill="#016FD0"/>
<path d="M78.7457 8.89771H78.1895V11.1783H78.7457V8.89771Z" fill="#016FD0"/>
<path d="M84.6382 8.89771V10.4861L83.6796 8.89771H82.8497V11.0546L81.9267 8.89771H81.1104L80.3405 10.6909H80.0961C79.9538 10.6909 79.8 10.6637 79.7162 10.5732C79.6138 10.4585 79.5662 10.2821 79.5662 10.0382C79.5662 9.79855 79.6296 9.61754 79.7226 9.5215C79.8305 9.41612 79.9423 9.38637 80.1424 9.38637H80.6587V8.89771H80.1314C79.7558 8.89771 79.4791 8.98142 79.3036 9.16329C79.0699 9.40762 79.01 9.71697 79.01 10.0552C79.01 10.4695 79.1103 10.7321 79.3024 10.9259C79.4919 11.1192 79.8271 11.1779 80.0927 11.1783H80.731L80.9358 10.6697H82.0678L82.2803 11.1783H83.3898V9.46669L84.424 11.1783H85.1957V8.89771H84.6382ZM81.1308 10.1937L81.5052 9.28482L81.883 10.1937H81.1308Z" fill="#016FD0"/>
<path d="M80.1442 9.76246C80.0158 9.76204 80.0027 9.77563 79.9869 9.79051C79.9818 9.79773 79.9436 9.87974 79.9436 10.0378C79.9436 10.1942 79.9687 10.2694 79.9869 10.3034C80.0061 10.3085 80.0413 10.3144 80.094 10.3144L80.3303 9.76246H80.1442Z" fill="#016FD0"/>
<path d="M82.3294 13.2934V12.8218H80.5107V15.1028H82.3294V14.6299L81.053 14.6269V14.1739H82.298V13.7082H81.053V13.2934H82.3294Z" fill="#016FD0"/>
<path d="M76.839 12.8225H75.0977L74.4042 13.5695L73.7328 12.8225H71.541V15.1031H73.7001L74.3978 14.348L75.0692 15.1031H76.1286V14.3382H76.8084C77.2848 14.3382 77.7573 14.2074 77.7573 13.5738C77.7573 12.9423 77.2716 12.8217 76.839 12.8225ZM73.4243 14.6285H72.0849V14.1746H73.2811V13.7089H72.0849V13.2942H73.4511L74.0472 13.9583L73.4243 14.6285ZM75.5855 14.8957L74.7484 13.966L75.5855 13.0668V14.8957ZM76.8322 13.8742H76.1286V13.2933H76.839C77.0362 13.2933 77.1722 13.3736 77.1722 13.5734C77.1722 13.771 77.0421 13.8751 76.8322 13.8742Z" fill="#016FD0"/>
<path d="M79.8219 14.0426C79.9646 13.9857 80.2081 13.8004 80.209 13.4354C80.209 13.1753 80.1006 13.0325 79.9294 12.9289C79.7492 12.8333 79.5486 12.8218 79.2729 12.8218H78.0146V15.1024H78.562V14.2695H79.1441C79.343 14.2695 79.4641 14.2891 79.544 14.3706C79.6451 14.4769 79.6319 14.68 79.6319 14.8172V15.1024H80.1788V14.6502C80.1771 14.4493 80.1661 14.3456 80.0883 14.2342C80.0424 14.1684 79.9426 14.0868 79.8219 14.0426ZM79.4934 13.7592C79.4203 13.8025 79.3298 13.8063 79.2236 13.8063H78.5611V13.2939H79.2325C79.3285 13.2939 79.4263 13.296 79.4926 13.3351C79.5631 13.3721 79.6052 13.443 79.6052 13.5403C79.6052 13.6376 79.5631 13.7171 79.4934 13.7592Z" fill="#016FD0"/>
<path d="M84.4123 13.8987C84.287 13.7746 84.0838 13.7237 83.7881 13.7169L83.4953 13.7084C83.4023 13.7084 83.3411 13.7024 83.2829 13.6824C83.2144 13.6565 83.1639 13.5987 83.1639 13.5125C83.1639 13.4402 83.186 13.3854 83.2463 13.348C83.3007 13.3111 83.3649 13.3068 83.4647 13.3068H84.4642V12.8215H83.3721C82.8001 12.8215 82.5928 13.1691 82.5928 13.5006C82.5928 14.2217 83.2314 14.1894 83.7405 14.206C83.8361 14.206 83.8931 14.2217 83.9347 14.2565C83.9729 14.2888 84.001 14.3407 84.001 14.4074C84.001 14.4694 83.9746 14.5213 83.9373 14.5561C83.8914 14.5994 83.8178 14.6126 83.715 14.6126H82.6578V15.1017H83.7193C84.2687 15.1017 84.5759 14.8727 84.5759 14.3819C84.5759 14.1477 84.5186 14.0084 84.4123 13.8987Z" fill="#016FD0"/>
<path d="M72.1703 8.89673L71.5155 10.4439L70.802 8.89673H69.9122V11.0562L68.9846 8.89673H68.1755L67.1995 11.1773H67.7914L68.003 10.6687H69.1376L69.3471 11.1773H70.4561V9.38965L71.2478 11.1769L71.7275 11.1773L72.5179 9.39135L72.52 11.1773H73.0788V8.89673H72.1703ZM68.1972 10.1936L68.5677 9.28469L68.9404 10.1936H68.1972Z" fill="#016FD0"/>
<path d="M75.3036 9.3718V8.89673H73.4832V11.1777H75.3036V10.7061H74.0279V10.2501H75.2734V9.78313H74.0279V9.3718H75.3036Z" fill="#016FD0"/>
<path d="M86.6389 13.8987C86.5144 13.7746 86.3108 13.7237 86.0151 13.7169L85.7219 13.7084C85.6297 13.7084 85.5681 13.7024 85.5094 13.6824C85.4419 13.6565 85.3909 13.5987 85.3909 13.5125C85.3909 13.4402 85.413 13.3854 85.4729 13.348C85.5277 13.3111 85.5923 13.3068 85.6917 13.3068H86.6916V12.8215H85.5987C85.0276 12.8215 84.8193 13.1691 84.8193 13.5006C84.8193 14.2217 85.4584 14.1894 85.9679 14.206C86.0631 14.206 86.1196 14.2217 86.1621 14.2565C86.1995 14.2888 86.228 14.3407 86.228 14.4074C86.228 14.4694 86.2012 14.5213 86.1647 14.5561C86.1183 14.5994 86.0448 14.6126 85.942 14.6126H84.8852V15.1017H85.9467C86.4961 15.1017 86.8025 14.8727 86.8025 14.3819C86.8025 14.1477 86.746 14.0084 86.6389 13.8987Z" fill="#016FD0"/>
<path d="M119.634 4H98.3664C97.6118 4 97 4.61176 97 5.36641V18.0912C97 18.8458 97.6118 19.4576 98.3664 19.4576H119.634C120.388 19.4576 121 18.8458 121 18.0912V5.36641C121 4.61176 120.388 4 119.634 4Z" stroke="#ABABAB" stroke-width="0.503021" stroke-linecap="round" stroke-linejoin="round"/>
<path d="M107.811 17.3614C110.866 17.3397 113.326 14.8453 113.304 11.7899C113.282 8.7345 110.788 6.27521 107.733 6.2969C104.677 6.3186 102.218 8.81306 102.24 11.8684C102.261 14.9238 104.756 17.3831 107.811 17.3614Z" fill="white"/>
<path d="M107.78 17.4599C104.609 17.475 102 14.9065 102 11.7799C102 8.36292 104.609 5.99946 107.78 6H109.265C112.398 5.99946 115.258 8.36181 115.258 11.7799C115.258 14.9053 112.398 17.4599 109.265 17.4599H107.78ZM107.792 6.47394C104.895 6.47505 102.548 8.82285 102.548 11.72C102.548 14.617 104.895 16.9642 107.792 16.9648C110.69 16.9642 113.038 14.617 113.038 11.72C113.038 8.82285 110.69 6.47505 107.792 6.47394ZM106.602 14.8221V8.6172C105.355 9.09727 104.471 10.3038 104.468 11.72C104.471 13.136 105.355 14.3426 106.602 14.8221ZM111.118 11.72C111.115 10.3033 110.23 9.09502 108.982 8.61663V14.8232C110.23 14.3442 111.115 13.1371 111.118 11.72Z" fill="#004A98"/>
<defs>
<clipPath id="clip0_136_2488">
<rect width="24" height="24" fill="white" transform="translate(33)"/>
</clipPath>
</defs>
</svg>
