<svg width="22" height="23" viewBox="0 0 22 23" fill="none" xmlns="http://www.w3.org/2000/svg">
<path d="M14.6663 12.3249V16.1749C14.6663 19.3833 13.383 20.6666 10.1747 20.6666H6.32467C3.11634 20.6666 1.83301 19.3833 1.83301 16.1749V12.3249C1.83301 9.11658 3.11634 7.83325 6.32467 7.83325H10.1747C13.383 7.83325 14.6663 9.11658 14.6663 12.3249Z" stroke="#2D2D2D" stroke-width="1.5" stroke-linecap="round" stroke-linejoin="round"/>
<path d="M20.1663 6.82492V10.6749C20.1663 13.8833 18.883 15.1666 15.6747 15.1666H14.6663V12.3249C14.6663 9.11659 13.383 7.83325 10.1747 7.83325H7.33301V6.82492C7.33301 3.61659 8.61634 2.33325 11.8247 2.33325H15.6747C18.883 2.33325 20.1663 3.61659 20.1663 6.82492Z" stroke="#2D2D2D" stroke-width="1.5" stroke-linecap="round" stroke-linejoin="round"/>
</svg>
