<svg width="24" height="24" viewBox="0 0 24 24" fill="none" xmlns="http://www.w3.org/2000/svg">
<path d="M21 18H3C1.7625 18 0.75 16.9875 0.75 15.75V4.5C0.75 3.2625 1.7625 2.25 3 2.25H21C22.2375 2.25 23.25 3.2625 23.25 4.5V15.75C23.25 16.9875 22.2375 18 21 18Z" fill="white"/>
<path d="M14.25 10.6875C11.1375 10.6875 8.625 13.2 8.625 16.3125C8.625 16.8938 8.71875 17.475 8.8875 18H19.6125C19.7812 17.475 19.875 16.8938 19.875 16.3125C19.875 13.2 17.3625 10.6875 14.25 10.6875ZM0.75 4.5H23.25V8.1H0.75V4.5Z" fill="#9EB9D3"/>
<path d="M21 18.5625H16.9688C16.65 18.5625 16.4062 18.3188 16.4062 18C16.4062 17.6812 16.65 17.4375 16.9688 17.4375H21C21.9375 17.4375 22.6875 16.6875 22.6875 15.75V4.5C22.6875 3.5625 21.9375 2.8125 21 2.8125H3C2.0625 2.8125 1.3125 3.5625 1.3125 4.5V15.75C1.3125 16.6875 2.0625 17.4375 3 17.4375H4.21875C4.5375 17.4375 4.78125 17.6812 4.78125 18C4.78125 18.3188 4.5375 18.5625 4.21875 18.5625H3C1.44375 18.5625 0.1875 17.3062 0.1875 15.75V4.5C0.1875 2.94375 1.44375 1.6875 3 1.6875H21C22.5562 1.6875 23.8125 2.94375 23.8125 4.5V15.75C23.8125 17.3062 22.5562 18.5625 21 18.5625Z" fill="#2D2D2D"/>
<path d="M12 21.9375C15.1066 21.9375 17.625 19.4191 17.625 16.3125C17.625 13.2059 15.1066 10.6875 12 10.6875C8.8934 10.6875 6.375 13.2059 6.375 16.3125C6.375 19.4191 8.8934 21.9375 12 21.9375Z" fill="white"/>
<path d="M10.125 15.6937V15.75C10.125 15.825 10.0688 15.8625 10.0125 15.8812C9.99375 15.9 9.95625 15.9 9.9375 15.9C9.88125 15.9 9.825 15.8812 9.7875 15.8062C9.69375 15.5625 9.525 15.3562 9.13125 15.3562C8.625 15.3562 8.2875 15.7687 8.2875 16.425C8.2875 17.0812 8.625 17.4937 9.13125 17.4937C9.54375 17.4937 9.73125 17.25 9.825 16.9875C9.84375 16.9125 9.91875 16.875 9.975 16.875C9.99375 16.875 10.0125 16.875 10.05 16.8937C10.1062 16.9125 10.1625 16.95 10.1625 17.025C10.1625 17.0437 10.1625 17.0625 10.1437 17.0812C10.05 17.4375 9.76875 17.8125 9.15 17.8125C8.41875 17.8125 7.96875 17.2875 7.96875 16.4437C7.96875 15.6187 8.4375 15.075 9.13125 15.075C9.73125 15.075 9.99375 15.3937 10.125 15.6937ZM12.6375 15.2062C12.6563 15.1312 12.7125 15.1125 12.7875 15.1125H12.8438C12.9187 15.1312 12.975 15.1875 12.975 15.2437C12.975 15.2625 12.975 15.2812 12.9562 15.3L12.075 17.625C12.0375 17.7375 11.9438 17.775 11.85 17.775C11.7375 17.775 11.6625 17.7375 11.625 17.625L10.7625 15.3187C10.7625 15.3 10.7437 15.2812 10.7437 15.2625C10.7437 15.1875 10.8 15.1312 10.875 15.1125C10.8937 15.1125 10.9125 15.0937 10.9312 15.0937C10.9875 15.0937 11.0437 15.1312 11.0812 15.1875L11.7375 17.0437C11.775 17.175 11.8125 17.325 11.85 17.4562C11.8875 17.325 11.925 17.175 11.9625 17.0437L12.6375 15.2062ZM15.4125 15.2062C15.4312 15.1312 15.4875 15.1125 15.5625 15.1125H15.6188C15.6938 15.1312 15.75 15.1875 15.75 15.2437C15.75 15.2625 15.75 15.2812 15.7313 15.3L14.8688 17.625C14.8313 17.7375 14.7375 17.775 14.6437 17.775C14.5312 17.775 14.4563 17.7375 14.4188 17.625L13.5563 15.3187C13.5563 15.3 13.5375 15.2812 13.5375 15.2625C13.5375 15.1875 13.5938 15.1312 13.6688 15.1125C13.6875 15.1125 13.7062 15.0937 13.725 15.0937C13.7812 15.0937 13.8375 15.1312 13.875 15.1875L14.5312 17.0437C14.5687 17.175 14.6062 17.325 14.6437 17.4562C14.6812 17.325 14.7187 17.175 14.7562 17.0437L15.4125 15.2062Z" fill="#2D2D2D" stroke="#2D2D2D" stroke-width="0.40625" stroke-miterlimit="10" stroke-linecap="round" stroke-linejoin="round"/>
<path d="M12 22.5C8.5875 22.5 5.8125 19.725 5.8125 16.3125C5.8125 12.9 8.5875 10.125 12 10.125C15.4125 10.125 18.1875 12.9 18.1875 16.3125C18.1875 19.725 15.4125 22.5 12 22.5ZM12 11.25C9.20625 11.25 6.9375 13.5188 6.9375 16.3125C6.9375 19.1062 9.20625 21.375 12 21.375C14.7937 21.375 17.0625 19.1062 17.0625 16.3125C17.0625 13.5188 14.7937 11.25 12 11.25Z" fill="#2D2D2D"/>
</svg>
