<svg width="30" height="30" viewBox="0 0 30 30" fill="none" xmlns="http://www.w3.org/2000/svg">
<path d="M24.412 6.9125L6.91201 24.4125C6.88701 24.4375 6.87451 24.45 6.84951 24.4625C6.37451 24.0625 5.93701 23.625 5.53701 23.15C3.63701 20.9625 2.49951 18.1125 2.49951 15C2.49951 8.1 8.09951 2.5 14.9995 2.5C18.112 2.5 20.962 3.6375 23.1495 5.5375C23.6245 5.9375 24.062 6.375 24.462 6.85C24.4495 6.875 24.437 6.8875 24.412 6.9125Z" fill="#2D2D2D"/>
<path d="M27.5001 15C27.5001 21.8625 21.8626 27.5 15.0001 27.5C13.1251 27.5 11.3501 27.0875 9.75007 26.3375C8.97507 25.975 8.82507 24.9375 9.42507 24.325L24.3251 9.42501C24.9251 8.82501 25.9751 8.97501 26.3376 9.75001C27.0876 11.3375 27.5001 13.125 27.5001 15Z" fill="#2D2D2D"/>
<path d="M27.2126 2.78751C26.8376 2.41251 26.2251 2.41251 25.8501 2.78751L2.7876 25.8625C2.4126 26.2375 2.4126 26.85 2.7876 27.225C2.9751 27.4 3.2126 27.5 3.4626 27.5C3.7126 27.5 3.9501 27.4 4.1376 27.2125L27.2126 4.13751C27.6001 3.76251 27.6001 3.16251 27.2126 2.78751Z" fill="#2D2D2D"/>
</svg>
