<svg width="22" height="22" viewBox="0 0 22 22" fill="none" xmlns="http://www.w3.org/2000/svg">
<path d="M20.1668 10.3124H18.2968C17.9668 6.81992 15.1802 4.02409 11.6877 3.70325V1.83325C11.6877 1.45742 11.376 1.14575 11.0002 1.14575C10.6243 1.14575 10.3127 1.45742 10.3127 1.83325V3.70325C6.82016 4.03325 4.02433 6.81992 3.7035 10.3124H1.8335C1.45766 10.3124 1.146 10.6241 1.146 10.9999C1.146 11.3758 1.45766 11.6874 1.8335 11.6874H3.7035C4.0335 15.1799 6.82016 17.9758 10.3127 18.2966V20.1666C10.3127 20.5424 10.6243 20.8541 11.0002 20.8541C11.376 20.8541 11.6877 20.5424 11.6877 20.1666V18.2966C15.1802 17.9666 17.976 15.1799 18.2968 11.6874H20.1668C20.5427 11.6874 20.8543 11.3758 20.8543 10.9999C20.8543 10.6241 20.5427 10.3124 20.1668 10.3124ZM11.0002 13.8599C9.4235 13.8599 8.14016 12.5766 8.14016 10.9999C8.14016 9.42325 9.4235 8.13992 11.0002 8.13992C12.5768 8.13992 13.8602 9.42325 13.8602 10.9999C13.8602 12.5766 12.5768 13.8599 11.0002 13.8599Z" fill="#2D2D2D"/>
</svg>
