<svg width="22" height="22" viewBox="0 0 22 22" fill="none" xmlns="http://www.w3.org/2000/svg">
<path d="M10.9998 12.8334C12.0124 12.8334 12.8332 12.0126 12.8332 11.0001C12.8332 9.98756 12.0124 9.16675 10.9998 9.16675C9.98732 9.16675 9.1665 9.98756 9.1665 11.0001C9.1665 12.0126 9.98732 12.8334 10.9998 12.8334Z" stroke="white" stroke-width="1.5" stroke-linecap="round" stroke-linejoin="round"/>
<path d="M18.3335 16.5C19.4885 14.9692 20.1668 13.0625 20.1668 11C20.1668 8.9375 19.4885 7.03083 18.3335 5.5" stroke="white" stroke-width="1.5" stroke-linecap="round" stroke-linejoin="round"/>
<path d="M3.66683 5.5C2.51183 7.03083 1.8335 8.9375 1.8335 11C1.8335 13.0625 2.51183 14.9692 3.66683 16.5" stroke="white" stroke-width="1.5" stroke-linecap="round" stroke-linejoin="round"/>
<path d="M15.3999 14.3C16.0874 13.3833 16.4999 12.2375 16.4999 11C16.4999 9.76246 16.0874 8.61662 15.3999 7.69995" stroke="white" stroke-width="1.5" stroke-linecap="round" stroke-linejoin="round"/>
<path d="M6.60001 7.69995C5.91251 8.61662 5.5 9.76246 5.5 11C5.5 12.2375 5.91251 13.3833 6.60001 14.3" stroke="white" stroke-width="1.5" stroke-linecap="round" stroke-linejoin="round"/>
</svg>
