<svg width="32" height="32" viewBox="0 0 32 32" fill="none" xmlns="http://www.w3.org/2000/svg">
<g clip-path="url(#clip0_272_1988)">
<path d="M15.9996 7.78337C11.4625 7.78337 7.78375 11.4628 7.78375 15.9998C7.78375 20.5377 11.4625 24.2156 15.9996 24.2156C20.5375 24.2156 24.2169 20.5377 24.2169 15.9998C24.2169 11.4628 20.5375 7.78337 15.9996 7.78337ZM15.9996 21.3333C13.0546 21.3333 10.6661 18.9456 10.6661 15.9998C10.6661 13.0541 13.0545 10.6664 15.9996 10.6664C18.9452 10.6664 21.3337 13.0541 21.3337 15.9998C21.3337 18.9455 18.9452 21.3333 15.9996 21.3333ZM26.4609 7.45918C26.4609 8.51868 25.6011 9.3785 24.5409 9.3785C23.4807 9.3785 22.6209 8.51868 22.6209 7.45918C22.6209 6.39925 23.4807 5.53918 24.5409 5.53918C25.6011 5.53918 26.4609 6.39925 26.4609 7.45918ZM31.1601 5.5195C30.751 4.46687 30.2039 3.57499 29.315 2.68537C27.5216 0.890682 25.068 0.208432 22.5972 0.0965567C20.8904 0.0176816 20.3455 0.000244141 15.9996 0.000244141C11.6551 0.000244141 11.1102 0.0176816 9.40337 0.0965567C6.92669 0.208682 4.47587 0.895182 2.68581 2.68531C0.88875 4.48237 0.209688 6.92843 0.0960625 9.40362C0.0183125 11.1105 0 11.6547 0 15.9998C0 20.3449 0.0183125 20.89 0.0960625 22.5976C0.210187 25.0814 0.888063 27.5182 2.68569 29.3145C4.48306 31.1105 6.92837 31.7906 9.40337 31.9039C11.1102 31.9819 11.6551 31.9996 15.9996 31.9996C20.3456 31.9996 20.8904 31.9819 22.5973 31.9039C25.0781 31.7903 27.5211 31.1096 29.3149 29.3145C31.1075 27.5206 31.7915 25.0672 31.9037 22.5975C31.9817 20.89 32 20.3449 32 15.9997C32 11.6546 31.9817 11.1104 31.9037 9.40356C31.8264 7.70012 31.5558 6.5375 31.1601 5.5195ZM29.0236 22.4652C28.9446 24.2031 28.5409 26.0107 27.2764 27.2767C25.9953 28.5594 24.2146 28.9443 22.4659 29.0241C20.7782 29.1005 20.2729 29.1172 15.9996 29.1172C11.7278 29.1172 11.2224 29.1004 9.53469 29.0241C7.78156 28.9441 6.00363 28.5528 4.72356 27.2769C3.44719 26.0046 3.05437 24.2019 2.97619 22.4652C2.89975 20.7784 2.883 20.2724 2.883 15.9997C2.883 11.728 2.89981 11.222 2.97619 9.53424C3.05413 7.80443 3.46569 5.98356 4.72331 4.72381C5.99844 3.44656 7.79488 3.05574 9.53481 2.97637C11.2224 2.89931 11.7278 2.88318 15.9996 2.88318C20.2722 2.88318 20.7782 2.89931 22.4659 2.97637C24.2181 3.05631 25.9989 3.44581 27.2763 4.72356C28.5542 6.00193 28.9444 7.79162 29.0236 9.53437C29.1009 11.222 29.1178 11.728 29.1178 15.9998C29.1177 20.2725 29.1009 20.7785 29.0236 22.4652Z" fill="white"/>
</g>
<defs>
<clipPath id="clip0_272_1988">
<rect width="32" height="32" fill="white"/>
</clipPath>
</defs>
</svg>
