<svg width="123" height="34" viewBox="0 0 123 34" fill="none" xmlns="http://www.w3.org/2000/svg">
<rect width="123" height="34" rx="6" fill="url(#paint0_linear_115_1045)"/>
<path d="M35.476 22V20.222H36.162V13.964H35.476V12.2H38.682V13.964H37.996V20.222H38.682V22H35.476ZM40.0099 22V14.286H41.8019C41.8019 14.678 41.7739 15.294 41.6899 15.7L41.7179 15.714C41.9839 14.86 42.8519 14.048 44.1399 14.048C45.6659 14.048 46.6739 15.056 46.7579 16.666C46.7719 16.848 46.7719 17.17 46.7719 17.38V22H44.9519V17.436C44.9519 17.296 44.9519 17.03 44.9379 16.904C44.9099 16.26 44.5179 15.714 43.7619 15.714C42.6979 15.714 41.9419 16.554 41.8719 17.562C41.8579 17.744 41.8439 17.954 41.8439 18.136V22H40.0099ZM51.3431 22.252C50.2231 22.252 48.8511 21.636 48.0811 20.894L49.0471 19.592C49.7191 20.11 50.5871 20.572 51.3431 20.572C52.0431 20.572 52.5331 20.334 52.5331 19.886V19.844C52.5331 19.452 52.0991 19.214 51.2311 18.934L50.3631 18.654C49.2851 18.304 48.4311 17.576 48.4311 16.4V16.358C48.4311 15.056 49.6211 14.048 51.3851 14.048C52.4491 14.048 53.4991 14.524 54.2831 15.308L53.2331 16.582C52.7291 16.092 52.0011 15.714 51.3851 15.714C50.6431 15.714 50.2511 15.994 50.2511 16.358V16.4C50.2511 16.61 50.6151 16.848 51.1751 17.03L51.9171 17.282C53.4991 17.842 54.3531 18.43 54.3531 19.844V19.886C54.3531 21.258 53.1071 22.252 51.3431 22.252ZM58.0279 22.168C56.8939 22.168 56.1379 21.622 55.9139 20.586C55.8299 20.208 55.8299 19.592 55.8299 19.046V15.98H55.0179V14.286H55.8859L56.1519 12.046H57.6219V14.286H59.6939V15.98H57.6219V19.046C57.6219 19.354 57.6219 19.816 57.6919 20.124C57.7479 20.376 57.9159 20.46 58.2379 20.46C58.4059 20.46 59.3719 20.334 59.6939 20.25V21.944C59.3439 22.014 58.3079 22.168 58.0279 22.168ZM63.4141 22.252C61.3001 22.252 60.2081 21.048 60.2081 19.578C60.2081 17.422 62.3501 16.848 64.0301 16.848C64.3661 16.848 64.8281 16.89 65.4021 16.988V16.806C65.4021 16.736 65.4021 16.68 65.3881 16.582C65.3041 15.98 64.8561 15.756 64.1421 15.756C63.4141 15.756 62.3081 16.036 61.5101 16.442L60.9221 14.86C61.7341 14.454 63.0921 14.062 64.1421 14.062C65.9901 14.062 67.0401 14.888 67.1801 16.456C67.2081 16.736 67.2081 17.016 67.2081 17.366V22H65.4021C65.4021 21.608 65.4161 21.566 65.5141 21.216L65.4861 21.202C65.0241 21.79 64.2401 22.252 63.4141 22.252ZM63.3581 20.572C64.8281 20.572 65.4021 19.494 65.4021 18.738V18.612C64.9541 18.5 64.4781 18.486 64.0161 18.486C63.2461 18.486 62.0281 18.682 62.0281 19.606C62.0281 20.306 62.7001 20.572 63.3581 20.572ZM68.8849 22V14.286H70.6769C70.6769 14.678 70.6489 15.294 70.5649 15.7L70.5929 15.714C70.8589 14.86 71.7269 14.048 73.0149 14.048C74.5409 14.048 75.5489 15.056 75.6329 16.666C75.6469 16.848 75.6469 17.17 75.6469 17.38V22H73.8269V17.436C73.8269 17.296 73.8269 17.03 73.8129 16.904C73.7849 16.26 73.3929 15.714 72.6369 15.714C71.5729 15.714 70.8169 16.554 70.7469 17.562C70.7329 17.744 70.7189 17.954 70.7189 18.136V22H68.8849ZM79.6021 22.168C78.4681 22.168 77.7121 21.622 77.4881 20.586C77.4041 20.208 77.4041 19.592 77.4041 19.046V15.98H76.5921V14.286H77.4601L77.7261 12.046H79.1961V14.286H81.2681V15.98H79.1961V19.046C79.1961 19.354 79.1961 19.816 79.2661 20.124C79.3221 20.376 79.4901 20.46 79.8121 20.46C79.9801 20.46 80.9461 20.334 81.2681 20.25V21.944C80.9181 22.014 79.8821 22.168 79.6021 22.168ZM85.8921 22V12.2H87.7261V20.222H92.7801V22H85.8921ZM93.8547 22V14.286H95.6747V22H93.8547ZM94.7647 12.97C94.1767 12.97 93.7287 12.508 93.7287 11.934C93.7287 11.332 94.1767 10.87 94.7647 10.87C95.3387 10.87 95.8147 11.332 95.8147 11.934C95.8147 12.508 95.3387 12.97 94.7647 12.97ZM100.144 22.014L96.8259 14.286H98.7999L100.494 18.346C100.676 18.78 100.788 19.214 100.9 19.648H100.928C101.04 19.242 101.166 18.766 101.334 18.346L103.042 14.286H105.016L101.684 22.014H100.144ZM109.212 22.252C106.846 22.252 105.544 20.446 105.544 18.15V18.108C105.544 15.966 107.042 14.048 109.254 14.048C111.606 14.048 112.88 15.924 112.88 18.136V18.794H107.378C107.462 19.858 108.162 20.572 109.212 20.572C109.926 20.572 111.004 20.278 111.914 19.55L112.852 20.978C111.774 21.846 110.528 22.252 109.212 22.252ZM107.434 17.184H110.99C110.85 16.358 110.22 15.714 109.254 15.714C108.33 15.714 107.644 16.358 107.434 17.184Z" fill="white"/>
<path d="M19.9998 19.8334C21.0124 19.8334 21.8332 19.0126 21.8332 18.0001C21.8332 16.9876 21.0124 16.1667 19.9998 16.1667C18.9873 16.1667 18.1665 16.9876 18.1665 18.0001C18.1665 19.0126 18.9873 19.8334 19.9998 19.8334Z" stroke="white" stroke-width="1.5" stroke-linecap="round" stroke-linejoin="round"/>
<path d="M27.3335 23.5C28.4885 21.9692 29.1668 20.0625 29.1668 18C29.1668 15.9375 28.4885 14.0308 27.3335 12.5" stroke="white" stroke-width="1.5" stroke-linecap="round" stroke-linejoin="round"/>
<path d="M12.6668 12.5C11.5118 14.0308 10.8335 15.9375 10.8335 18C10.8335 20.0625 11.5118 21.9692 12.6668 23.5" stroke="white" stroke-width="1.5" stroke-linecap="round" stroke-linejoin="round"/>
<path d="M24.3999 21.3C25.0874 20.3833 25.4999 19.2375 25.4999 18C25.4999 16.7625 25.0874 15.6166 24.3999 14.7" stroke="white" stroke-width="1.5" stroke-linecap="round" stroke-linejoin="round"/>
<path d="M15.6 14.7C14.9125 15.6166 14.5 16.7625 14.5 18C14.5 19.2375 14.9125 20.3833 15.6 21.3" stroke="white" stroke-width="1.5" stroke-linecap="round" stroke-linejoin="round"/>
<defs>
<linearGradient id="paint0_linear_115_1045" x1="-1.11818" y1="-8.15958e-07" x2="69.9242" y2="79.1787" gradientUnits="userSpaceOnUse">
<stop stop-color="#FF7070"/>
<stop offset="1" stop-color="#FF4545"/>
</linearGradient>
</defs>
</svg>
