<svg width="78" height="13" viewBox="0 0 78 13" fill="none" xmlns="http://www.w3.org/2000/svg">
<path d="M0.476 12V10.222H1.162V3.964H0.476V2.2H3.682V3.964H2.996V10.222H3.682V12H0.476ZM5.00992 12V4.286H6.80192C6.80192 4.678 6.77392 5.294 6.68992 5.7L6.71792 5.714C6.98392 4.86 7.85192 4.048 9.13992 4.048C10.6659 4.048 11.6739 5.056 11.7579 6.666C11.7719 6.848 11.7719 7.17 11.7719 7.38V12H9.95192V7.436C9.95192 7.296 9.95192 7.03 9.93792 6.904C9.90992 6.26 9.51792 5.714 8.76192 5.714C7.69792 5.714 6.94192 6.554 6.87192 7.562C6.85792 7.744 6.84392 7.954 6.84392 8.136V12H5.00992ZM16.3431 12.252C15.2231 12.252 13.8511 11.636 13.0811 10.894L14.0471 9.592C14.7191 10.11 15.5871 10.572 16.3431 10.572C17.0431 10.572 17.5331 10.334 17.5331 9.886V9.844C17.5331 9.452 17.0991 9.214 16.2311 8.934L15.3631 8.654C14.2851 8.304 13.4311 7.576 13.4311 6.4V6.358C13.4311 5.056 14.6211 4.048 16.3851 4.048C17.4491 4.048 18.4991 4.524 19.2831 5.308L18.2331 6.582C17.7291 6.092 17.0011 5.714 16.3851 5.714C15.6431 5.714 15.2511 5.994 15.2511 6.358V6.4C15.2511 6.61 15.6151 6.848 16.1751 7.03L16.9171 7.282C18.4991 7.842 19.3531 8.43 19.3531 9.844V9.886C19.3531 11.258 18.1071 12.252 16.3431 12.252ZM23.0279 12.168C21.8939 12.168 21.1379 11.622 20.9139 10.586C20.8299 10.208 20.8299 9.592 20.8299 9.046V5.98H20.0179V4.286H20.8859L21.1519 2.046H22.6219V4.286H24.6939V5.98H22.6219V9.046C22.6219 9.354 22.6219 9.816 22.6919 10.124C22.7479 10.376 22.9159 10.46 23.2379 10.46C23.4059 10.46 24.3719 10.334 24.6939 10.25V11.944C24.3439 12.014 23.3079 12.168 23.0279 12.168ZM28.4141 12.252C26.3001 12.252 25.2081 11.048 25.2081 9.578C25.2081 7.422 27.3501 6.848 29.0301 6.848C29.3661 6.848 29.8281 6.89 30.4021 6.988V6.806C30.4021 6.736 30.4021 6.68 30.3881 6.582C30.3041 5.98 29.8561 5.756 29.1421 5.756C28.4141 5.756 27.3081 6.036 26.5101 6.442L25.9221 4.86C26.7341 4.454 28.0921 4.062 29.1421 4.062C30.9901 4.062 32.0401 4.888 32.1801 6.456C32.2081 6.736 32.2081 7.016 32.2081 7.366V12H30.4021C30.4021 11.608 30.4161 11.566 30.5141 11.216L30.4861 11.202C30.0241 11.79 29.2401 12.252 28.4141 12.252ZM28.3581 10.572C29.8281 10.572 30.4021 9.494 30.4021 8.738V8.612C29.9541 8.5 29.4781 8.486 29.0161 8.486C28.2461 8.486 27.0281 8.682 27.0281 9.606C27.0281 10.306 27.7001 10.572 28.3581 10.572ZM33.8849 12V4.286H35.6769C35.6769 4.678 35.6489 5.294 35.5649 5.7L35.5929 5.714C35.8589 4.86 36.7269 4.048 38.0149 4.048C39.5409 4.048 40.5489 5.056 40.6329 6.666C40.6469 6.848 40.6469 7.17 40.6469 7.38V12H38.8269V7.436C38.8269 7.296 38.8269 7.03 38.8129 6.904C38.7849 6.26 38.3929 5.714 37.6369 5.714C36.5729 5.714 35.8169 6.554 35.7469 7.562C35.7329 7.744 35.7189 7.954 35.7189 8.136V12H33.8849ZM44.6021 12.168C43.4681 12.168 42.7121 11.622 42.4881 10.586C42.4041 10.208 42.4041 9.592 42.4041 9.046V5.98H41.5921V4.286H42.4601L42.7261 2.046H44.1961V4.286H46.2681V5.98H44.1961V9.046C44.1961 9.354 44.1961 9.816 44.2661 10.124C44.3221 10.376 44.4901 10.46 44.8121 10.46C44.9801 10.46 45.9461 10.334 46.2681 10.25V11.944C45.9181 12.014 44.8821 12.168 44.6021 12.168ZM50.8921 12V2.2H52.7261V10.222H57.7801V12H50.8921ZM58.8547 12V4.286H60.6747V12H58.8547ZM59.7647 2.97C59.1767 2.97 58.7287 2.508 58.7287 1.934C58.7287 1.332 59.1767 0.87 59.7647 0.87C60.3387 0.87 60.8147 1.332 60.8147 1.934C60.8147 2.508 60.3387 2.97 59.7647 2.97ZM65.1439 12.014L61.8259 4.286H63.7999L65.4939 8.346C65.6759 8.78 65.7879 9.214 65.8999 9.648H65.9279C66.0399 9.242 66.1659 8.766 66.3339 8.346L68.0419 4.286H70.0159L66.6839 12.014H65.1439ZM74.212 12.252C71.846 12.252 70.544 10.446 70.544 8.15V8.108C70.544 5.966 72.042 4.048 74.254 4.048C76.606 4.048 77.88 5.924 77.88 8.136V8.794H72.378C72.462 9.858 73.162 10.572 74.212 10.572C74.926 10.572 76.004 10.278 76.914 9.55L77.852 10.978C76.774 11.846 75.528 12.252 74.212 12.252ZM72.434 7.184H75.99C75.85 6.358 75.22 5.714 74.254 5.714C73.33 5.714 72.644 6.358 72.434 7.184Z" fill="url(#paint0_linear_694_3334)"/>
<defs>
<linearGradient id="paint0_linear_694_3334" x1="-0.718181" y1="1" x2="27.4448" y2="46.6961" gradientUnits="userSpaceOnUse">
<stop stop-color="#FF7070"/>
<stop offset="1" stop-color="#FF4545"/>
</linearGradient>
</defs>
</svg>
