<svg width="73" height="36" viewBox="0 0 73 36" fill="none" xmlns="http://www.w3.org/2000/svg">
<rect width="73" height="36" rx="6" fill="url(#paint0_linear_32_782)"/>
<path d="M35.812 22V12.2H37.646V20.222H42.7V22H35.812ZM43.7746 22V14.286H45.5946V22H43.7746ZM44.6846 12.97C44.0966 12.97 43.6486 12.508 43.6486 11.934C43.6486 11.332 44.0966 10.87 44.6846 10.87C45.2586 10.87 45.7346 11.332 45.7346 11.934C45.7346 12.508 45.2586 12.97 44.6846 12.97ZM50.0638 22.014L46.7458 14.286H48.7198L50.4138 18.346C50.5958 18.78 50.7078 19.214 50.8198 19.648H50.8478C50.9598 19.242 51.0858 18.766 51.2538 18.346L52.9618 14.286H54.9358L51.6038 22.014H50.0638ZM59.132 22.252C56.766 22.252 55.464 20.446 55.464 18.15V18.108C55.464 15.966 56.962 14.048 59.174 14.048C61.526 14.048 62.8 15.924 62.8 18.136V18.794H57.298C57.382 19.858 58.082 20.572 59.132 20.572C59.846 20.572 60.924 20.278 61.834 19.55L62.772 20.978C61.694 21.846 60.448 22.252 59.132 22.252ZM57.354 17.184H60.91C60.77 16.358 60.14 15.714 59.174 15.714C58.25 15.714 57.564 16.358 57.354 17.184Z" fill="white"/>
<path d="M19.9998 19.8334C21.0124 19.8334 21.8332 19.0126 21.8332 18.0001C21.8332 16.9876 21.0124 16.1667 19.9998 16.1667C18.9873 16.1667 18.1665 16.9876 18.1665 18.0001C18.1665 19.0126 18.9873 19.8334 19.9998 19.8334Z" stroke="white" stroke-width="1.5" stroke-linecap="round" stroke-linejoin="round"/>
<path d="M27.3335 23.5C28.4885 21.9692 29.1668 20.0625 29.1668 18C29.1668 15.9375 28.4885 14.0308 27.3335 12.5" stroke="white" stroke-width="1.5" stroke-linecap="round" stroke-linejoin="round"/>
<path d="M12.6668 12.5C11.5118 14.0308 10.8335 15.9375 10.8335 18C10.8335 20.0625 11.5118 21.9692 12.6668 23.5" stroke="white" stroke-width="1.5" stroke-linecap="round" stroke-linejoin="round"/>
<path d="M24.3999 21.3C25.0874 20.3833 25.4999 19.2375 25.4999 18C25.4999 16.7625 25.0874 15.6166 24.3999 14.7" stroke="white" stroke-width="1.5" stroke-linecap="round" stroke-linejoin="round"/>
<path d="M15.6 14.7C14.9125 15.6166 14.5 16.7625 14.5 18C14.5 19.2375 14.9125 20.3833 15.6 21.3" stroke="white" stroke-width="1.5" stroke-linecap="round" stroke-linejoin="round"/>
<defs>
<linearGradient id="paint0_linear_32_782" x1="-0.663636" y1="-8.63956e-07" x2="67.3355" y2="42.4804" gradientUnits="userSpaceOnUse">
<stop stop-color="#FF7070"/>
<stop offset="1" stop-color="#FF4545"/>
</linearGradient>
</defs>
</svg>
