<svg width="24" height="24" viewBox="0 0 24 24" fill="none" xmlns="http://www.w3.org/2000/svg">
<g clip-path="url(#clip0_270_1959)">
<path d="M7.19749 5.16024C7.19749 3.93489 6.20059 2.93799 4.97523 2.93799C3.74988 2.93799 2.75293 3.93489 2.75293 5.16024C2.75293 6.3856 3.74983 7.3825 4.97519 7.3825C6.20054 7.3825 7.19749 6.3856 7.19749 5.16024ZM4.97519 5.97783C4.52435 5.97783 4.1576 5.61108 4.1576 5.16024C4.1576 4.70941 4.52435 4.34266 4.97519 4.34266C5.42602 4.34266 5.79277 4.70941 5.79277 5.16024C5.79277 5.61108 5.42602 5.97783 4.97519 5.97783Z" fill="#2D2D2D"/>
<path d="M23.9994 11.7326C23.9883 11.4559 23.8156 11.2115 23.5585 11.1087L16.0928 8.12235C15.8764 8.03584 15.6312 8.06223 15.4382 8.19284C15.2452 8.32346 15.1296 8.54135 15.1296 8.77444V19.0755C14.2712 19.3292 13.6057 20.0353 13.41 20.9168H3.47556C2.72672 20.9168 2.11746 20.3076 2.11746 19.5587C2.11746 18.8099 2.72672 18.2006 3.47556 18.2006H9.83088C11.2759 18.2006 12.4515 17.025 12.4515 15.58C12.4515 14.135 11.2759 12.9594 9.83088 12.9594H6.21385L9.23559 7.90745C9.74773 7.05125 10.0184 6.07131 10.0184 5.07365C10.0184 2.31158 7.77131 0.0644531 5.00924 0.0644531C2.24718 0.0644531 0 2.31154 0 5.0736V5.09151C0 6.07576 0.263984 7.04438 0.763383 7.89252L4.37013 14.0181C4.48265 14.1989 4.69002 14.3658 4.97295 14.3641H9.83092C10.5014 14.3641 11.0469 14.9095 11.0469 15.58C11.0469 16.2505 10.5014 16.7959 9.83092 16.7959H3.47556C1.95216 16.7959 0.712737 18.0353 0.712737 19.5587C0.712737 21.0821 1.95216 22.3216 3.47556 22.3216H13.5072C13.8596 23.2633 14.7684 23.9357 15.8316 23.9357C17.1996 23.9357 18.3125 22.8228 18.3125 21.4548C18.3125 20.3308 17.5611 19.3796 16.5343 19.0758V15.902L23.6099 12.39C23.858 12.2668 24.0106 12.0093 23.9994 11.7326ZM1.97381 7.17979C1.60148 6.5474 1.40468 5.82528 1.40468 5.09146V5.07356C1.40468 3.08605 3.02165 1.46903 5.0092 1.46903C6.99675 1.46903 8.61372 3.08605 8.61372 5.07356C8.61372 5.81737 8.41189 6.54792 8.03008 7.18632L4.98011 12.2855L1.97381 7.17979ZM16.9078 21.4547C16.9078 22.0481 16.4249 22.5309 15.8316 22.5309C15.2382 22.5309 14.7554 22.0481 14.7554 21.4547C14.7554 20.862 15.237 20.3797 15.8295 20.3785C15.8303 20.3785 15.8312 20.3787 15.832 20.3787C15.8328 20.3787 15.8335 20.3786 15.8343 20.3786C16.4264 20.38 16.9078 20.8621 16.9078 21.4547ZM16.5343 14.3337V9.81185L21.579 11.8297L16.5343 14.3337Z" fill="#2D2D2D"/>
</g>
<defs>
<clipPath id="clip0_270_1959">
<rect width="24" height="24" fill="white"/>
</clipPath>
</defs>
</svg>
