<svg width="32" height="32" viewBox="0 0 32 32" fill="none" xmlns="http://www.w3.org/2000/svg">
<g clip-path="url(#clip0_377_3473)">
<path fill-rule="evenodd" clip-rule="evenodd" d="M21.0065 18.6223C22.3358 17.1591 23.6114 15.4195 24.4974 13.462C26.0295 13.0195 27.1802 13.9671 27.1802 15.8693V27.3112C27.1802 28.052 26.651 28.9692 25.9925 29.3455L21.8321 31.7299C21.4645 31.9406 21.0065 31.6752 21.0065 31.2516V18.6223ZM12.7734 21.2441C13.572 21.5844 14.4238 21.7545 15.2756 21.7545C16.5628 21.7545 17.85 21.366 18.9471 20.5891V31.4693C18.9471 31.8757 18.5225 32.1424 18.1564 31.9661L13.0855 29.523C12.8947 29.431 12.7734 29.238 12.7734 29.0262V21.2441ZM6.58793 14.5504C7.71696 16.6213 9.24344 18.4127 10.7146 19.8432V28.7067C10.7146 28.9529 10.547 29.1615 10.3278 29.2735C10.3115 29.2818 10.2954 29.2903 10.2795 29.299L7.51606 30.8748C5.58752 31.9801 4 31.0629 4 28.8286V17.3867C4 16.6459 4.52917 15.7287 5.1877 15.3524L6.58793 14.5504Z" fill="#2D2D2D"/>
<path d="M23.5865 6.1493C22.6228 1.90904 18.924 0 15.675 0C15.675 0 15.675 0 15.6658 0C12.426 0 8.71803 1.89986 7.75433 6.14012C6.6805 10.876 9.58077 14.8868 12.2057 17.4108C13.1786 18.3469 14.4268 18.815 15.675 18.815C16.9232 18.815 18.1714 18.3469 19.1351 17.4108C21.7601 14.8868 24.6603 10.8852 23.5865 6.1493ZM15.675 10.7475C14.078 10.7475 12.7839 9.4534 12.7839 7.85642C12.7839 6.25944 14.078 4.96533 15.675 4.96533C17.272 4.96533 18.5661 6.25944 18.5661 7.85642C18.5661 9.4534 17.272 10.7475 15.675 10.7475Z" fill="#2D2D2D"/>
</g>
<defs>
<clipPath id="clip0_377_3473">
<rect width="32" height="32" fill="white"/>
</clipPath>
</defs>
</svg>
