<svg width="32" height="32" viewBox="0 0 32 32" fill="none" xmlns="http://www.w3.org/2000/svg">
<path d="M12.2 9.98666C11.4534 9.98666 10.8667 10.5867 10.8667 11.32C10.8667 12.0533 11.4667 12.6533 12.2 12.6533C12.9334 12.6533 13.5334 12.0533 13.5334 11.32C13.5334 10.5867 12.9334 9.98666 12.2 9.98666Z" fill="#2D2D2D"/>
<path d="M28.6132 6.71999C27.4932 4.11999 25.0265 2.66666 21.5865 2.66666H10.4132C6.13317 2.66666 2.6665 6.13332 2.6665 10.4133V21.5867C2.6665 25.0267 4.11984 27.4933 6.71984 28.6133C6.97317 28.72 7.2665 28.6533 7.45317 28.4667L28.4665 7.45332C28.6665 7.25332 28.7332 6.95999 28.6132 6.71999ZM14.0398 16.32C13.5198 16.8267 12.8398 17.0667 12.1598 17.0667C11.4798 17.0667 10.7998 16.8133 10.2798 16.32C8.91984 15.04 7.4265 13 7.99984 10.5733C8.5065 8.37332 10.4532 7.38666 12.1598 7.38666C13.8665 7.38666 15.8132 8.37332 16.3198 10.5867C16.8798 13 15.3865 15.04 14.0398 16.32Z" fill="#2D2D2D"/>
<path d="M25.9595 27.3733C26.2529 27.6667 26.2129 28.1467 25.8529 28.3467C24.6795 29 23.2529 29.3333 21.5862 29.3333H10.4129C10.0262 29.3333 9.8662 28.88 10.1329 28.6133L18.1862 20.56C18.4529 20.2933 18.8662 20.2933 19.1329 20.56L25.9595 27.3733Z" fill="#2D2D2D"/>
<path d="M29.3333 10.4133V21.5867C29.3333 23.2533 29 24.6933 28.3467 25.8533C28.1467 26.2133 27.6667 26.24 27.3733 25.96L20.5467 19.1333C20.28 18.8667 20.28 18.4533 20.5467 18.1867L28.6 10.1333C28.88 9.86666 29.3333 10.0267 29.3333 10.4133Z" fill="#2D2D2D"/>
</svg>
