<svg width="24" height="24" viewBox="0 0 24 24" fill="none" xmlns="http://www.w3.org/2000/svg">
<g clip-path="url(#clip0_270_2149)">
<path d="M15.2449 17.831H8.75488V6.16797H15.2449V17.831Z" fill="#FF5F00"/>
<path d="M9.167 12.0001C9.16602 10.877 9.42058 9.7683 9.9114 8.75806C10.4022 7.74783 11.1164 6.86251 12 6.16911C10.9059 5.30923 9.59187 4.77452 8.20821 4.62607C6.82456 4.47762 5.42704 4.72142 4.17539 5.32962C2.92374 5.93782 1.86843 6.88588 1.13008 8.06545C0.391732 9.24501 0.000119671 10.6085 0 12.0001C0.000267045 13.3915 0.391926 14.7548 1.13023 15.9342C1.86853 17.1136 2.9237 18.0615 4.17517 18.6697C5.42665 19.2779 6.82396 19.5217 8.20746 19.3734C9.59096 19.2252 10.9048 18.6907 11.999 17.8311C11.1157 17.1375 10.4018 16.2521 9.91115 15.2419C9.42052 14.2317 9.16605 13.1232 9.167 12.0001Z" fill="#EB001B"/>
<path d="M24 12.0001C23.9999 13.3917 23.6083 14.7552 22.8699 15.9348C22.1316 17.1143 21.0763 18.0624 19.8246 18.6706C18.573 19.2788 17.1754 19.5226 15.7918 19.3741C14.4081 19.2257 13.0941 18.691 12 17.8311C13.725 16.4731 14.833 14.3661 14.833 12.0001C14.833 9.63411 13.725 7.52711 12 6.16911C13.0941 5.30923 14.4081 4.77452 15.7918 4.62607C17.1754 4.47762 18.573 4.72142 19.8246 5.32962C21.0763 5.93782 22.1316 6.88588 22.8699 8.06545C23.6083 9.24501 23.9999 10.6085 24 12.0001Z" fill="#F79E1B"/>
</g>
<defs>
<clipPath id="clip0_270_2149">
<rect width="24" height="24" fill="white"/>
</clipPath>
</defs>
</svg>
