<svg width="81" height="84" viewBox="0 0 81 84" fill="none" xmlns="http://www.w3.org/2000/svg">
<g opacity="0.7">
<path d="M78.1723 21.6263C62.0666 18.5192 3.25574 53.005 17.5817 71.5628C53.4187 117.986 80.5924 98.8119 94.0354 96.9762C131.245 91.8956 158.532 139.579 169.252 101.169C180.199 61.9484 132.337 67.0933 120.607 56.6561C108.877 46.2185 114.396 28.6142 78.1723 21.6263Z" stroke="#E2E2E2" stroke-width="0.6" stroke-miterlimit="10"/>
<path d="M165.855 99.5331C176.209 62.655 131.069 67.4798 120.032 57.6588C108.995 47.8378 114.19 31.2833 80.1097 24.6905C64.9583 21.7598 9.75162 54.1518 23.191 71.6286C56.7974 115.23 82.4195 97.2489 95.0472 95.5532C130.021 90.8819 155.678 135.692 165.855 99.5331Z" stroke="#E2E2E2" stroke-width="0.6" stroke-miterlimit="10"/>
<path d="M162.458 97.8977C172.221 63.3617 129.803 67.8657 119.458 58.6618C109.114 49.4573 113.985 33.9527 82.0481 27.755C67.8511 25.0004 16.2482 55.2987 28.8014 71.6945C60.1772 112.473 84.248 95.6859 96.0599 94.1299C128.799 89.8682 152.826 131.805 162.458 97.8977Z" stroke="#E2E2E2" stroke-width="0.6" stroke-miterlimit="10"/>
<path d="M159.061 96.2624C168.232 64.0683 128.536 68.2523 118.884 59.6645C109.233 51.0768 113.78 36.6218 83.9862 30.8195C70.744 28.2408 22.745 56.4458 34.4118 71.7602C63.5568 109.716 86.0761 94.1232 97.0724 92.7067C127.576 88.8547 149.973 127.918 159.061 96.2624Z" stroke="#E2E2E2" stroke-width="0.6" stroke-miterlimit="10"/>
<path d="M155.664 94.6267C164.243 64.7748 127.268 68.6384 118.31 60.6676C109.351 52.6963 113.575 39.2908 85.9243 33.8834C73.6365 31.4814 29.2011 57.6207 40.0218 71.826C66.8365 107.029 87.9039 92.5602 98.0847 91.2837C126.353 87.8412 147.121 124.03 155.664 94.6267Z" stroke="#E2E2E2" stroke-width="0.6" stroke-miterlimit="10"/>
<path d="M152.266 92.9914C160.253 65.4816 126.001 69.0248 117.736 61.6701C109.47 54.3156 113.37 41.9603 87.8621 36.948C76.5288 34.7221 35.6871 58.7744 45.6317 71.8921C70.1915 104.289 89.729 90.9747 99.0968 89.8605C125.123 86.765 144.268 120.143 152.266 92.9914Z" stroke="#E2E2E2" stroke-width="0.6" stroke-miterlimit="10"/>
<path d="M148.869 91.356C156.328 66.205 124.733 69.4113 117.16 62.6731C109.588 55.9351 113.164 44.6294 89.7993 40.0122C79.4204 37.9628 42.1726 59.9282 51.2409 71.9582C73.5459 101.548 91.5556 89.4074 100.108 88.4374C123.898 85.7388 141.478 116.273 148.869 91.356Z" stroke="#E2E2E2" stroke-width="0.6" stroke-miterlimit="10"/>
<path d="M145.472 89.7205C152.349 66.9142 123.466 69.7973 116.586 63.6755C109.706 57.5542 112.959 47.2984 91.7374 43.0763C82.3131 41.203 48.6592 61.0812 56.8511 72.0237C76.902 98.8065 93.3834 87.8401 101.12 87.014C122.674 84.713 138.636 112.388 145.472 89.7205Z" stroke="#E2E2E2" stroke-width="0.6" stroke-miterlimit="10"/>
<path d="M142.074 88.0853C148.369 67.6238 122.198 70.1837 116.011 64.6787C109.825 59.1739 112.753 49.9678 93.6753 46.1409C85.2054 44.4437 55.1457 62.2345 62.4612 72.0896C80.2583 96.065 95.211 86.273 102.133 85.5908C121.451 83.6876 135.793 108.504 142.074 88.0853Z" stroke="#E2E2E2" stroke-width="0.6" stroke-miterlimit="10"/>
<path d="M138.677 86.4496C144.388 68.3336 120.931 70.5702 115.437 65.6815C109.943 60.7934 112.548 52.6372 95.6132 49.2052C88.0977 47.6844 61.6319 63.3877 68.071 72.1557C83.6153 93.3218 97.0387 84.706 103.145 84.1676C120.228 82.6621 132.949 104.62 138.677 86.4496Z" stroke="#E2E2E2" stroke-width="0.6" stroke-miterlimit="10"/>
<path d="M135.28 84.8144C140.407 69.0429 119.664 70.9565 114.863 66.6845C110.062 62.413 112.343 55.3064 97.5516 52.2698C90.9909 50.9248 68.1188 64.5402 73.6817 72.2215C86.9744 90.5776 98.8674 83.1391 104.158 82.7449C119.007 81.6373 130.105 100.736 135.28 84.8144Z" stroke="#E2E2E2" stroke-width="0.6" stroke-miterlimit="10"/>
<path d="M131.883 83.179C136.423 69.7523 118.396 71.3426 114.288 67.6875C110.18 64.0318 112.137 57.9753 99.489 55.3338C93.8826 54.1653 74.6048 65.6916 79.291 72.2874C90.3342 87.8305 100.695 81.5727 105.169 81.3216C117.785 80.6131 127.259 96.8521 131.883 83.179Z" stroke="#E2E2E2" stroke-width="0.6" stroke-miterlimit="10"/>
<path d="M128.486 81.5433C132.438 70.4616 117.129 71.729 113.714 68.6902C110.299 65.6515 111.933 60.6446 101.427 58.3982C96.7755 57.4059 81.0922 66.8421 84.9016 72.3531C93.6985 85.08 102.525 80.0065 106.182 79.898C116.566 79.59 124.411 92.9682 128.486 81.5433Z" stroke="#E2E2E2" stroke-width="0.6" stroke-miterlimit="10"/>
</g>
</svg>
