<svg width="22" height="22" viewBox="0 0 22 22" fill="none" xmlns="http://www.w3.org/2000/svg">
<path d="M18.4287 5.68391C18.466 5.38119 18.4855 5.07298 18.4855 4.76021C18.4855 2.13125 16.3543 0 13.7253 0H5.76994C5.26952 0 4.84228 0.361367 4.75927 0.85482L1.82794 18.2776C1.72275 18.9028 2.20469 19.4725 2.83861 19.4725H5.74806C6.24848 19.4725 6.68375 19.1114 6.76673 18.6179C6.76673 18.6179 6.77158 18.589 6.78035 18.5369H6.78039L6.37494 20.9468C6.2823 21.4978 6.70704 22 7.26576 22H9.8111C10.2522 22 10.6288 21.6815 10.7019 21.2465L11.425 16.9488C11.5497 16.2079 12.1911 15.6655 12.9423 15.6655H13.611C17.2431 15.6655 20.1875 12.721 20.1875 9.08892C20.1875 7.68346 19.4928 6.4411 18.4287 5.68391Z" fill="#002987"/>
<path d="M18.4278 5.68384C17.9726 9.38684 14.8166 12.2542 10.9905 12.2542H8.77057C8.26951 12.2542 7.83677 12.5879 7.70103 13.0598L6.37407 20.9467C6.28139 21.4977 6.70613 21.9999 7.26485 21.9999H9.81019C10.2513 21.9999 10.6278 21.6814 10.701 21.2465L11.4241 16.9487C11.5488 16.2079 12.1901 15.6654 12.9414 15.6654H13.61C17.2422 15.6654 20.1866 12.721 20.1866 9.08885C20.1866 7.68339 19.4919 6.44103 18.4278 5.68384Z" fill="#0085CC"/>
<path d="M8.77075 12.2542H10.9907C14.8168 12.2542 17.9729 9.38683 18.428 5.68387C17.7453 5.19806 16.9111 4.91138 16.0093 4.91138H10.215C9.55527 4.91138 8.992 5.38777 8.88251 6.03832L7.70117 13.0598C7.83691 12.5879 8.26969 12.2542 8.77075 12.2542Z" fill="#00186A"/>
</svg>
