<svg width="18" height="18" viewBox="0 0 18 18" fill="none" xmlns="http://www.w3.org/2000/svg">
<path d="M15.75 4.48499C13.2525 4.23749 10.74 4.10999 8.235 4.10999C6.75 4.10999 5.265 4.18499 3.78 4.33499L2.25 4.48499" stroke="#FF3544" stroke-width="1.125" stroke-linecap="round" stroke-linejoin="round"/>
<path d="M6.375 3.7275L6.54 2.745C6.66 2.0325 6.75 1.5 8.0175 1.5H9.9825C11.25 1.5 11.3475 2.0625 11.46 2.7525L11.625 3.7275" stroke="#FF3544" stroke-width="1.125" stroke-linecap="round" stroke-linejoin="round"/>
<path d="M14.1383 6.85492L13.6508 14.4074C13.5683 15.5849 13.5008 16.4999 11.4083 16.4999H6.59328C4.50078 16.4999 4.43328 15.5849 4.35078 14.4074L3.86328 6.85492" stroke="#FF3544" stroke-width="1.125" stroke-linecap="round" stroke-linejoin="round"/>
<path d="M7.74707 12.375H10.2446" stroke="#FF3544" stroke-width="1.125" stroke-linecap="round" stroke-linejoin="round"/>
<path d="M7.125 9.375H10.875" stroke="#FF3544" stroke-width="1.125" stroke-linecap="round" stroke-linejoin="round"/>
</svg>
