<svg width="28" height="28" viewBox="0 0 28 28" fill="none" xmlns="http://www.w3.org/2000/svg">
<path d="M21.584 18.3166H16.4157C15.8878 18.3165 15.368 18.1866 14.9021 17.9384C14.4362 17.6902 14.0385 17.3313 13.744 16.8932L12.834 15.4699C12.7064 15.2752 12.5338 15.1141 12.3307 15.0004C12.1276 14.8866 11.9 14.8236 11.6673 14.8166H6.53398C6.30192 14.8166 6.07936 14.7244 5.91527 14.5603C5.75117 14.3962 5.65898 14.1736 5.65898 13.9416C5.65898 13.7095 5.75117 13.4869 5.91527 13.3229C6.07936 13.1588 6.30192 13.0666 6.53398 13.0666H11.5857C12.1135 13.0666 12.6333 13.1965 13.0992 13.4447C13.5651 13.6929 13.9628 14.0518 14.2573 14.4899L15.1673 15.9132C15.2949 16.108 15.4675 16.269 15.6706 16.3828C15.8737 16.4965 16.1013 16.5596 16.334 16.5666H21.2107V6.6499H17.5823C17.0544 6.64982 16.5347 6.51997 16.0688 6.27177C15.6029 6.02356 15.2052 5.66463 14.9107 5.22657L14.0007 3.80324C13.8731 3.6085 13.7004 3.44743 13.4973 3.33369C13.2942 3.21995 13.0667 3.1569 12.834 3.1499H6.70898V13.9416C6.70898 14.1736 6.6168 14.3962 6.4527 14.5603C6.28861 14.7244 6.06605 14.8166 5.83398 14.8166C5.60192 14.8166 5.37936 14.7244 5.21527 14.5603C5.05117 14.3962 4.95898 14.1736 4.95898 13.9416V2.2749C4.96201 2.04378 5.05516 1.82297 5.21861 1.65953C5.38205 1.49608 5.60286 1.40292 5.83398 1.3999H12.7523C13.2802 1.39998 13.8 1.52984 14.2658 1.77804C14.7317 2.02624 15.1294 2.38517 15.424 2.82324L16.334 4.24657C16.4615 4.4413 16.6342 4.60237 16.8373 4.71612C17.0404 4.82986 17.268 4.8929 17.5007 4.8999H21.584C21.9708 4.8999 22.3417 5.05355 22.6152 5.32704C22.8887 5.60053 23.0423 5.97146 23.0423 6.35824V16.8582C23.0423 17.245 22.8887 17.6159 22.6152 17.8894C22.3417 18.1629 21.9708 18.3166 21.584 18.3166Z" fill="#2D2D2D"/>
<path d="M5.83398 26.4832C5.60286 26.4802 5.38205 26.3871 5.21861 26.2236C5.05516 26.0602 4.96201 25.8394 4.95898 25.6082V2.2749C4.95898 2.04284 5.05117 1.82028 5.21527 1.65618C5.37936 1.49209 5.60192 1.3999 5.83398 1.3999C6.06605 1.3999 6.28861 1.49209 6.4527 1.65618C6.6168 1.82028 6.70898 2.04284 6.70898 2.2749V25.6082C6.70596 25.8394 6.61281 26.0602 6.44936 26.2236C6.28592 26.3871 6.06511 26.4802 5.83398 26.4832Z" fill="#2D2D2D"/>
<path d="M12.8343 9.56641H10.501C10.2689 9.56641 10.0464 9.47422 9.88226 9.31012C9.71816 9.14603 9.62598 8.92347 9.62598 8.69141C9.62598 8.45934 9.71816 8.23678 9.88226 8.07269C10.0464 7.90859 10.2689 7.81641 10.501 7.81641H12.8343C13.0664 7.81641 13.2889 7.90859 13.453 8.07269C13.6171 8.23678 13.7093 8.45934 13.7093 8.69141C13.7093 8.92347 13.6171 9.14603 13.453 9.31012C13.2889 9.47422 13.0664 9.56641 12.8343 9.56641Z" fill="#2D2D2D"/>
</svg>
