<svg width="18" height="18" viewBox="0 0 18 18" fill="none" xmlns="http://www.w3.org/2000/svg">
<path d="M11.1064 9.46984V11.6811C11.1064 13.5279 10.3693 14.265 8.52245 14.265H6.31925C4.48055 14.265 3.73535 13.5279 3.73535 11.6811V9.46984C3.73535 7.63114 4.47245 6.89404 6.31925 6.89404H8.53055C10.3693 6.89404 11.1064 7.63114 11.1064 9.46984Z" stroke="#2D2D2D" stroke-width="1.3" stroke-linecap="round" stroke-linejoin="round"/>
<path d="M14.2655 6.31079V8.52209C14.2655 10.3689 13.5284 11.106 11.6816 11.106H11.1065V9.46979C11.1065 7.63109 10.3694 6.89399 8.52263 6.89399H6.89453V6.31079C6.89453 4.46399 7.63163 3.73499 9.47843 3.73499H11.6897C13.5284 3.73499 14.2655 4.47209 14.2655 6.31079Z" stroke="#2D2D2D" stroke-width="1.3" stroke-linecap="round" stroke-linejoin="round"/>
<path d="M17.1007 11.4301C17.1007 14.5648 14.5654 17.1001 11.4307 17.1001L12.2812 15.6826" stroke="#2D2D2D" stroke-width="1.3" stroke-linecap="round" stroke-linejoin="round"/>
<path d="M0.900391 6.57002C0.900391 3.43532 3.43569 0.900024 6.57039 0.900024L5.71989 2.31752" stroke="#2D2D2D" stroke-width="1.3" stroke-linecap="round" stroke-linejoin="round"/>
</svg>
