<svg width="26" height="24" viewBox="0 0 26 24" fill="none" xmlns="http://www.w3.org/2000/svg">
<path d="M11.9681 0.955728C12.4059 0.126057 13.5941 0.126058 14.0319 0.955729L17.0114 6.60299C17.1802 6.92294 17.4879 7.14648 17.8443 7.20816L24.1359 8.29676C25.0603 8.4567 25.4274 9.58677 24.7736 10.2595L20.3235 14.8383C20.0714 15.0977 19.9539 15.4594 20.0053 15.8175L20.9142 22.1375C21.0478 23.066 20.0865 23.7644 19.2447 23.3505L13.5148 20.5331C13.1902 20.3735 12.8098 20.3735 12.4852 20.5331L6.75534 23.3505C5.91354 23.7645 4.95224 23.066 5.08577 22.1375L5.99465 15.8175C6.04615 15.4594 5.92862 15.0977 5.67649 14.8383L1.22636 10.2595C0.57256 9.58677 0.939745 8.4567 1.86408 8.29676L8.15567 7.20816C8.51212 7.14648 8.81981 6.92294 8.98861 6.60299L11.9681 0.955728Z" fill="#2D2D2D"/>
</svg>
