<svg width="23" height="21" viewBox="0 0 23 21" fill="none" xmlns="http://www.w3.org/2000/svg">
<path d="M10.6156 0.67634C10.9908 -0.0348064 12.0092 -0.0348076 12.3844 0.676339L15.0912 5.8065C15.2358 6.08075 15.4996 6.27236 15.8051 6.32522L21.5206 7.31415C22.3129 7.45123 22.6276 8.41987 22.0672 8.99646L18.0246 13.156C17.8085 13.3784 17.7077 13.6884 17.7519 13.9953L18.5775 19.7367C18.692 20.5325 17.868 21.1312 17.1465 20.7764L11.9412 18.217C11.663 18.0801 11.337 18.0801 11.0588 18.217L5.85355 20.7764C5.132 21.1312 4.30802 20.5325 4.42248 19.7367L5.24814 13.9953C5.29228 13.6884 5.19154 13.3784 4.97543 13.156L0.932778 8.99646C0.372383 8.41987 0.687111 7.45123 1.4794 7.31415L7.19489 6.32522C7.50042 6.27236 7.76415 6.08075 7.90884 5.8065L10.6156 0.67634Z" fill="#FFD439"/>
</svg>
