<svg width="29" height="12" viewBox="0 0 29 12" fill="none" xmlns="http://www.w3.org/2000/svg">
<path fill-rule="evenodd" clip-rule="evenodd" d="M28.8379 6.20029C28.8379 4.14958 27.8446 2.53143 25.9461 2.53143C24.0395 2.53143 22.886 4.14958 22.886 6.1843C22.886 8.59553 24.2478 9.81311 26.2024 9.81311C27.1556 9.81311 27.8766 9.59683 28.4213 9.29241V7.69025C27.8766 7.96263 27.2518 8.13086 26.4587 8.13086C25.6817 8.13086 24.9927 7.85849 24.9046 6.91323H28.8218C28.8219 6.80908 28.8379 6.39252 28.8379 6.20029ZM24.8807 5.43926C24.8807 4.53404 25.4334 4.15753 25.9381 4.15753C26.4267 4.15753 26.9474 4.53404 26.9474 5.43926H24.8807Z" fill="#2D2D2D"/>
<path fill-rule="evenodd" clip-rule="evenodd" d="M19.7939 2.53143C19.0089 2.53143 18.5042 2.8999 18.2238 3.15628L18.1196 2.65962H16.3573V12.0001L18.36 11.5755L18.368 9.30852C18.6563 9.5168 19.0809 9.81317 19.7858 9.81317C21.2198 9.81317 22.5255 8.65962 22.5255 6.12026C22.5175 3.79712 21.1958 2.53143 19.7939 2.53143ZM19.3132 8.05077C18.8406 8.05077 18.5602 7.88254 18.368 7.67426L18.36 4.70228C18.5682 4.46995 18.8566 4.30977 19.3132 4.30977C20.0422 4.30977 20.5469 5.12684 20.5469 6.17624C20.5469 7.2497 20.0502 8.05077 19.3132 8.05077Z" fill="#2D2D2D"/>
<path fill-rule="evenodd" clip-rule="evenodd" d="M13.6021 2.05877L15.6127 1.62621V6.10352e-05L13.6021 0.424622V2.05877Z" fill="#2D2D2D"/>
<path d="M15.6127 2.6676H13.6021V9.6769H15.6127V2.6676Z" fill="#2D2D2D"/>
<path fill-rule="evenodd" clip-rule="evenodd" d="M11.4473 3.26035L11.3192 2.66755H9.58887V9.67685H11.5915V4.92654C12.0641 4.3097 12.8652 4.42189 13.1135 4.50998V2.66755C12.8572 2.57146 11.92 2.39523 11.4473 3.26035Z" fill="#2D2D2D"/>
<path fill-rule="evenodd" clip-rule="evenodd" d="M7.44089 0.92926L5.48627 1.34582L5.47827 7.76233C5.47827 8.94792 6.36744 9.82109 7.55303 9.82109C8.20992 9.82109 8.69052 9.7009 8.9549 9.55671V7.93056C8.69858 8.0347 7.43289 8.40317 7.43289 7.21763V4.37384H8.9549V2.6676H7.43289L7.44089 0.92926Z" fill="#2D2D2D"/>
<path fill-rule="evenodd" clip-rule="evenodd" d="M2.02623 4.70228C2.02623 4.38986 2.28255 4.26972 2.70711 4.26972C3.3159 4.26972 4.08493 4.45395 4.69378 4.78243V2.8999C4.02889 2.63557 3.372 2.53143 2.70711 2.53143C1.08096 2.53143 -0.000488281 3.38055 -0.000488281 4.79842C-0.000488281 7.00937 3.04358 6.6569 3.04358 7.61016C3.04358 7.97868 2.72316 8.09882 2.27455 8.09882C1.60966 8.09882 0.760544 7.82644 0.0876567 7.45798V9.3645C0.832637 9.68492 1.58567 9.82111 2.27455 9.82111C3.94075 9.82111 5.0863 8.99598 5.0863 7.56212C5.0783 5.17494 2.02623 5.5995 2.02623 4.70228Z" fill="#2D2D2D"/>
</svg>
