<svg width="24" height="24" viewBox="0 0 24 24" fill="none" xmlns="http://www.w3.org/2000/svg">
<g clip-path="url(#clip0_270_1970)">
<path d="M3.32834 18.6344H3.32723C3.31664 18.6343 3.30588 18.6341 3.29492 18.6338C1.94474 18.5993 0.877903 17.4773 0.911514 16.1272V12.4156C0.911514 11.0327 1.95756 9.82054 3.32834 9.82054H3.58476V8.4651C3.58476 3.7346 7.41954 -0.100244 12.1501 -0.100244C16.8807 -0.100244 20.7154 3.7346 20.7154 8.4651V9.82097C21.4206 9.83566 22.0118 10.2321 22.4253 10.7772C22.8464 11.3322 23.0917 12.0512 23.0916 12.7125V16.4254C23.0916 17.0288 22.8822 17.5453 22.5013 17.9222C22.1306 18.2891 21.6041 18.5172 20.9681 18.5709L20.4308 19.3627L20.4281 19.3667L20.428 19.3667C19.3103 20.853 17.5661 21.7336 15.7097 21.7528C15.611 22.2789 15.3589 22.7648 14.984 23.1487L14.984 23.1487C14.4019 23.7444 13.6082 24.0861 12.7755 24.0996L12.7738 24.0997C11.0901 24.0998 9.72035 22.7438 9.70354 21.0601L9.70352 21.0583C9.71489 19.6223 10.7294 18.39 12.1364 18.1031C13.7549 17.773 15.3352 18.7949 15.7058 20.3944C17.097 20.3768 18.4054 19.7293 19.2631 18.6343H18.7739H18.7693L18.7693 18.6342C18.7561 18.6336 18.7428 18.6326 18.7297 18.6312C18.3667 18.5924 18.1034 18.2681 18.1392 17.9055V10.6334C18.1392 10.4372 18.1961 10.2385 18.3019 10.0862C18.4084 9.93284 18.5698 9.82049 18.7739 9.82049H19.3273V8.46504C19.3273 4.5012 16.1139 1.28782 12.1501 1.28782C8.18626 1.28782 4.97288 4.5012 4.97288 8.46504V9.82049H5.52635C5.73037 9.82049 5.89183 9.93286 5.99834 10.0862C6.10412 10.2386 6.161 10.4372 6.161 10.6334V17.9055L3.32834 18.6344ZM3.32834 18.6344H5.52635V18.6345L5.53104 18.6343C5.8975 18.6171 6.18064 18.306 6.16345 17.9396L3.32834 18.6344ZM2.29952 16.1332L2.29963 16.1333V16.1284V12.4156C2.29963 11.7695 2.74666 11.2086 3.32834 11.2086H4.77288V17.2463H3.32955C2.74574 17.2314 2.28419 16.7464 2.29841 16.1625L2.19844 16.16L2.2984 16.1627C2.29867 16.1529 2.29904 16.1431 2.29952 16.1332ZM13.9796 22.1774L13.9795 22.1774L13.9776 22.1795C13.6674 22.5158 13.2318 22.7084 12.7743 22.7116C11.8623 22.6965 11.1223 21.969 11.0917 21.0575C11.0922 20.1456 11.8314 19.4063 12.7435 19.4059C13.6561 19.4056 14.3963 20.1451 14.3967 21.0577C14.3967 21.0577 14.3967 21.0577 14.3967 21.0577V21.0578V21.0578V21.0578V21.0578V21.0578V21.0578V21.0579V21.0579V21.0579V21.0579V21.0579V21.0579V21.0579V21.058V21.058V21.058V21.058V21.058V21.058V21.0581V21.0581V21.0581V21.0581V21.0581V21.0581V21.0582V21.0582V21.0582V21.0582V21.0582V21.0582V21.0583V21.0583V21.0583V21.0583V21.0583V21.0583V21.0583V21.0584V21.0584V21.0584V21.0584V21.0584V21.0584V21.0585V21.0585V21.0585V21.0585V21.0585V21.0585V21.0586V21.0586V21.0586V21.0586V21.0586V21.0586V21.0587V21.0587V21.0587V21.0587V21.0587V21.0587V21.0588V21.0588V21.0588V21.0588V21.0588V21.0588V21.0588V21.0589V21.0589V21.0589V21.0589V21.0589V21.0589V21.059V21.059V21.059V21.059V21.059V21.059V21.0591V21.0591V21.0591V21.0591V21.0591L14.4967 21.0591H14.3965L14.3968 21.0647C14.42 21.4777 14.2686 21.8815 13.9796 22.1774ZM21.7036 16.4255C21.7036 16.7859 21.5341 16.9844 21.3249 17.0989C21.1083 17.2173 20.8454 17.2463 20.6749 17.2463H19.5273V11.2087H20.6749C20.9517 11.2087 21.2073 11.405 21.3999 11.7081C21.5908 12.0087 21.7036 12.3912 21.7036 12.7126V16.4255Z" fill="#2D2D2D" stroke="#2D2D2D" stroke-width="0.2"/>
</g>
<defs>
<clipPath id="clip0_270_1970">
<rect width="24" height="24" fill="white"/>
</clipPath>
</defs>
</svg>
