<svg width="32" height="32" viewBox="0 0 32 32" fill="none" xmlns="http://www.w3.org/2000/svg">
<path d="M11.3806 16.5875C8.84308 16.5875 6.79308 18.6375 6.83058 21.15C6.85558 22.7625 7.74308 24.1625 9.04933 24.9438C8.60558 24.2625 8.34308 23.4563 8.33058 22.5875C8.29308 20.075 10.3431 18.025 12.8806 18.025C13.3806 18.025 13.8618 18.1063 14.3118 18.25V13.2188C13.8431 13.15 13.3618 13.1125 12.8806 13.1125C12.8556 13.1125 12.8368 13.1125 12.8118 13.1125V16.8125C12.3618 16.6688 11.8806 16.5875 11.3806 16.5875Z" fill="#F00044"/>
<path d="M22.3482 1.5H22.3107H21.0107C21.3857 3.38125 22.442 5.01875 23.917 6.13125C22.9482 4.85 22.3607 3.25 22.3482 1.5Z" fill="#F00044"/>
<path d="M29.9988 9.1563C29.5051 9.1563 29.0301 9.1063 28.5613 9.0188V12.625C26.8613 12.625 25.2113 12.2938 23.6613 11.6313C22.6613 11.2063 21.7301 10.6625 20.8738 10.0063L20.8988 21.125C20.8863 23.625 19.8988 25.9688 18.1113 27.7375C16.6551 29.175 14.8113 30.0938 12.8113 30.3876C12.3426 30.4563 11.8613 30.4938 11.3801 30.4938C9.24258 30.4938 7.20508 29.8 5.54883 28.5188C5.73633 28.7438 5.93633 28.9625 6.15508 29.175C7.95508 30.95 10.3426 31.9313 12.8863 31.9313C13.3676 31.9313 13.8488 31.8938 14.3176 31.8251C16.3176 31.5313 18.1613 30.6125 19.6176 29.175C21.4051 27.4063 22.3926 25.0625 22.4051 22.5625L22.3113 11.4438C23.1613 12.1 24.0926 12.65 25.0988 13.0688C26.6551 13.725 28.3051 14.0625 29.9988 14.0625" fill="#F00044"/>
<path d="M6.13636 15.8813C7.91761 14.1125 10.2864 13.1313 12.8114 13.1125V11.7813C12.3426 11.7125 11.8614 11.675 11.3801 11.675C8.83011 11.675 6.43636 12.6563 4.63636 14.4438C2.86761 16.2 1.85511 18.6 1.86136 21.0938C1.86136 23.6063 2.85511 25.9625 4.64886 27.7438C4.93636 28.025 5.23011 28.2875 5.54261 28.525C4.13011 26.8438 3.36136 24.7438 3.35511 22.5313C3.36136 20.0375 4.36761 17.6375 6.13636 15.8813Z" fill="#08FFF9"/>
<path d="M28.5613 9.01885V7.68135H28.5488C26.8113 7.68135 25.2113 7.10635 23.9238 6.13135C25.0426 7.60635 26.6801 8.65635 28.5613 9.01885Z" fill="#08FFF9"/>
<path d="M12.6238 27.0125C13.2176 27.0438 13.7863 26.9625 14.3113 26.7938C16.1238 26.2 17.4301 24.5125 17.4301 22.525L17.4363 15.0875V1.5H21.0113C20.9176 1.03125 20.8676 0.55625 20.8613 0.0625H15.9363V13.6438L15.9301 21.0813C15.9301 23.0688 14.6238 24.7563 12.8113 25.35C12.2863 25.525 11.7176 25.6063 11.1238 25.5688C10.3676 25.525 9.66133 25.3 9.04883 24.9375C9.81758 26.125 11.1301 26.9313 12.6238 27.0125Z" fill="#08FFF9"/>
<path d="M12.8114 30.3875C14.8114 30.0938 16.6551 29.175 18.1114 27.7375C19.8989 25.9687 20.8864 23.625 20.8989 21.125L20.8739 10.0062C21.7239 10.6625 22.6551 11.2125 23.6614 11.6312C25.2176 12.2875 26.8676 12.625 28.5614 12.625V9.01875C26.6801 8.65625 25.0426 7.60625 23.9239 6.13125C22.4489 5.01875 21.3864 3.38125 21.0176 1.5H17.4364V15.0812L17.4301 22.5187C17.4301 24.5062 16.1239 26.1937 14.3114 26.7875C13.7864 26.9625 13.2176 27.0437 12.6239 27.0062C11.1239 26.925 9.81761 26.1187 9.04886 24.9375C7.74261 24.1625 6.85511 22.7562 6.83011 21.1437C6.79261 18.6312 8.84261 16.5812 11.3801 16.5812C11.8801 16.5812 12.3614 16.6625 12.8114 16.8062V13.1062C10.2864 13.125 7.91761 14.1062 6.13636 15.875C4.36761 17.6312 3.35511 20.0312 3.36136 22.5187C3.36136 24.7312 4.13011 26.8312 5.54886 28.5125C7.21136 29.7937 9.24261 30.4875 11.3801 30.4875C11.8614 30.4937 12.3426 30.4562 12.8114 30.3875Z" fill="white"/>
</svg>
