<svg width="22" height="22" viewBox="0 0 22 22" fill="none" xmlns="http://www.w3.org/2000/svg">
<g clip-path="url(#clip0_354_3056)">
<path d="M10.9974 9.10088L12.9821 10.1443L12.6031 7.93432L14.2087 6.36918L11.9898 6.04674L10.9974 4.03606L10.005 6.04674L7.78613 6.36918L9.39175 7.93432L9.01272 10.1443L10.9974 9.10088Z" stroke="#ABABAB" stroke-width="1.3" stroke-miterlimit="10" stroke-linecap="round" stroke-linejoin="round"/>
<mask id="mask0_354_3056" style="mask-type:luminance" maskUnits="userSpaceOnUse" x="-1" y="0" width="23" height="23">
<path d="M-0.00341797 0.000490189H21.9966V22.0005H-0.00341797V0.000490189Z" fill="white"/>
</mask>
<g mask="url(#mask0_354_3056)">
<path d="M10.9961 18.7778L5.63329 10.6669C4.94953 9.64354 4.55078 8.41351 4.55078 7.09033C4.55078 3.53067 7.43643 0.645021 10.9961 0.645021C14.5558 0.645021 17.4414 3.53067 17.4414 7.09033C17.4414 8.41351 17.0427 9.64354 16.3589 10.6669L10.9961 18.7778Z" stroke="#ABABAB" stroke-width="1.3" stroke-miterlimit="10" stroke-linecap="round" stroke-linejoin="round"/>
<path d="M12.6609 16.2865C15.4136 16.5801 17.4414 17.5842 17.4414 18.7778C17.4414 20.2017 14.5558 21.356 10.9961 21.356C7.43643 21.356 4.55078 20.2017 4.55078 18.7778C4.55078 17.5842 6.57852 16.5801 9.33127 16.2865" stroke="#ABABAB" stroke-width="1.3" stroke-miterlimit="10" stroke-linecap="round" stroke-linejoin="round"/>
</g>
</g>
<defs>
<clipPath id="clip0_354_3056">
<rect width="22" height="22" fill="white"/>
</clipPath>
</defs>
</svg>
