<svg width="50" height="50" viewBox="0 0 50 50" fill="none" xmlns="http://www.w3.org/2000/svg">
<path d="M44.0625 12.8541C43.2083 12.3958 41.4166 11.9166 38.9791 13.6249L35.9166 15.7916C35.6875 9.31242 32.875 6.77075 26.0416 6.77075H13.5416C6.41665 6.77075 3.64581 9.54159 3.64581 16.6666V33.3333C3.64581 38.1249 6.24998 43.2291 13.5416 43.2291H26.0416C32.875 43.2291 35.6875 40.6874 35.9166 34.2083L38.9791 36.3749C40.2708 37.2916 41.3958 37.5833 42.2916 37.5833C43.0625 37.5833 43.6666 37.3541 44.0625 37.1458C44.9166 36.7083 46.3541 35.5208 46.3541 32.5416V17.4583C46.3541 14.4791 44.9166 13.2916 44.0625 12.8541ZM22.9166 23.7083C20.7708 23.7083 19 21.9583 19 19.7916C19 17.6249 20.7708 15.8749 22.9166 15.8749C25.0625 15.8749 26.8333 17.6249 26.8333 19.7916C26.8333 21.9583 25.0625 23.7083 22.9166 23.7083Z" fill="black"/>
</svg>
