<svg width="40" height="40" viewBox="0 0 40 40" fill="none" xmlns="http://www.w3.org/2000/svg">
<g clip-path="url(#clip0_908_3386)">
<path d="M37.7126 8.06235C38.795 8.06235 39.6756 8.9429 39.6756 10.0253V30.1738C39.6756 31.2561 38.7951 32.1367 37.7126 32.1367H2.42108C1.33874 32.1367 0.458115 31.2562 0.458115 30.1738V10.0253C0.458115 8.94297 1.33866 8.06235 2.42108 8.06235H37.7126ZM37.7126 7.67172H2.42108C1.12124 7.67172 0.0674896 8.72547 0.0674896 10.0253V30.1738C0.0674896 31.4737 1.12124 32.5273 2.42108 32.5273H37.7126C39.0126 32.5273 40.0662 31.4737 40.0662 30.1738V10.0253C40.0662 8.72547 39.0125 7.67172 37.7126 7.67172Z" fill="#005098"/>
<path d="M14.9125 25.0863L16.6038 15.158H19.3111L17.6167 25.0863H14.9125Z" fill="#005098"/>
<path d="M27.4329 15.4025C26.897 15.2012 26.0566 14.9854 25.0072 14.9854C22.3333 14.9854 20.4497 16.3318 20.4331 18.262C20.418 19.6882 21.7776 20.4847 22.8042 20.9594C23.8581 21.4462 24.2123 21.7566 24.2078 22.1912C24.2002 22.8567 23.366 23.1602 22.5877 23.1602C21.5052 23.1602 20.9298 23.0103 20.0409 22.6393L19.6927 22.4818L19.3127 24.7046C19.9441 24.9817 21.1129 25.2217 22.3273 25.2337C25.1724 25.2337 27.0181 23.9028 27.0392 21.8413C27.0499 20.7126 26.3292 19.8533 24.7681 19.1442C23.8217 18.6847 23.2419 18.3785 23.2479 17.9132C23.2479 17.5006 23.7384 17.0593 24.7984 17.0593C25.6826 17.0453 26.3246 17.2384 26.8227 17.4397L27.0666 17.5544L27.4329 15.4025Z" fill="#005098"/>
<path d="M34.3722 15.1675H32.2811C31.6331 15.1675 31.1486 15.3442 30.8639 15.9908L26.8453 25.09H29.6874C29.6874 25.09 30.1507 23.8665 30.2567 23.5978C30.5671 23.5978 33.3274 23.6024 33.7225 23.6024C33.8027 23.9498 34.0511 25.09 34.0511 25.09H36.563L34.3722 15.1675ZM31.035 21.5673C31.2591 20.995 32.1131 18.7915 32.1131 18.7915C32.098 18.818 32.3357 18.2165 32.472 17.8437L32.6552 18.6999C32.6552 18.6999 33.1731 21.0699 33.282 21.5673H31.035Z" fill="#005098"/>
<path d="M12.6428 15.1652L9.99304 21.936L9.70992 20.5605C9.21781 18.9736 7.68093 17.2551 5.96242 16.3951L8.385 25.0786L11.2482 25.0748L15.509 15.1652H12.6428Z" fill="#005098"/>
<path d="M7.53562 15.1591H3.17038L3.1371 15.3655C6.53179 16.1876 8.77874 18.1738 9.70999 20.5605L8.7621 15.9972C8.59859 15.3684 8.12312 15.1811 7.53562 15.1591Z" fill="#F6A500"/>
</g>
<defs>
<clipPath id="clip0_908_3386">
<rect width="40" height="40" fill="white"/>
</clipPath>
</defs>
</svg>
