<svg width="32" height="32" viewBox="0 0 32 32" fill="none" xmlns="http://www.w3.org/2000/svg">
<g clip-path="url(#clip0_272_1990)">
<path d="M0.0664062 32L2.31641 23.7812C0.928906 21.3813 0.203906 18.65 0.203906 15.8562C0.203906 7.1125 7.32266 0 16.0664 0C20.3102 0 24.2914 1.65625 27.2852 4.65C30.2789 7.65 31.9289 11.6312 31.9289 15.8687C31.9227 24.6125 24.8102 31.725 16.0664 31.725H16.0602C13.4039 31.725 10.7977 31.0563 8.47891 29.7938L0.0664062 32ZM8.86641 26.925L9.34766 27.2125C11.3727 28.4125 13.6914 29.05 16.0602 29.05H16.0664C23.3352 29.05 29.2477 23.1375 29.2477 15.8687C29.2477 12.35 27.8789 9.0375 25.3914 6.54375C22.9039 4.05 19.5914 2.68125 16.0727 2.68125C8.79766 2.68125 2.88516 8.59375 2.88516 15.8625C2.88516 18.35 3.57891 20.775 4.89766 22.875L5.21016 23.375L3.87891 28.2375L8.86641 26.925Z" fill="white"/>
<path d="M0.624023 31.4437L2.79902 23.5124C1.45527 21.1937 0.749023 18.5562 0.749023 15.8624C0.755273 7.41865 7.62402 0.556152 16.0615 0.556152C20.1553 0.556152 24.0053 2.1499 26.8928 5.04365C29.7865 7.9374 31.3803 11.7812 31.374 15.8749C31.3678 24.3124 24.499 31.1812 16.0615 31.1812H16.0553C13.4928 31.1812 10.974 30.5374 8.73652 29.3187L0.624023 31.4437Z" fill="url(#paint0_linear_272_1990)"/>
<path d="M0.0664062 32L2.31641 23.7812C0.928906 21.3813 0.203906 18.65 0.203906 15.8562C0.203906 7.1125 7.32266 0 16.0664 0C20.3102 0 24.2914 1.65625 27.2852 4.65C30.2789 7.65 31.9289 11.6312 31.9289 15.8687C31.9227 24.6125 24.8102 31.725 16.0664 31.725H16.0602C13.4039 31.725 10.7977 31.0563 8.47891 29.7938L0.0664062 32ZM8.86641 26.925L9.34766 27.2125C11.3727 28.4125 13.6914 29.05 16.0602 29.05H16.0664C23.3352 29.05 29.2477 23.1375 29.2477 15.8687C29.2477 12.35 27.8789 9.0375 25.3914 6.54375C22.9039 4.05 19.5914 2.68125 16.0727 2.68125C8.79766 2.68125 2.88516 8.59375 2.88516 15.8625C2.88516 18.35 3.57891 20.775 4.89766 22.875L5.21016 23.375L3.87891 28.2375L8.86641 26.925Z" fill="url(#paint1_linear_272_1990)"/>
<path fill-rule="evenodd" clip-rule="evenodd" d="M12.0971 9.22485C11.7971 8.56235 11.4846 8.54985 11.2033 8.53735C10.9721 8.52485 10.7096 8.5311 10.4408 8.5311C10.1783 8.5311 9.74707 8.6311 9.38457 9.02485C9.02207 9.4186 7.99707 10.3811 7.99707 12.3311C7.99707 14.2811 9.41582 16.1686 9.61582 16.4311C9.81582 16.6936 12.3596 20.8249 16.3846 22.4124C19.7346 23.7311 20.4158 23.4686 21.1408 23.4061C21.8658 23.3436 23.4846 22.4499 23.8158 21.5249C24.1471 20.5999 24.1471 19.8061 24.0471 19.6436C23.9471 19.4811 23.6846 19.3811 23.2846 19.1811C22.8908 18.9811 20.9408 18.0249 20.5783 17.8936C20.2158 17.7624 19.9533 17.6936 19.6846 18.0936C19.4221 18.4874 18.6596 19.3811 18.4283 19.6436C18.1971 19.9061 17.9658 19.9436 17.5721 19.7436C17.1783 19.5436 15.8971 19.1249 14.3846 17.7749C13.2033 16.7249 12.4096 15.4249 12.1783 15.0311C11.9471 14.6374 12.1533 14.4186 12.3533 14.2249C12.5283 14.0499 12.7471 13.7624 12.9471 13.5311C13.1471 13.2999 13.2096 13.1374 13.3408 12.8686C13.4721 12.6061 13.4096 12.3749 13.3096 12.1749C13.2221 11.9686 12.4533 10.0124 12.0971 9.22485Z" fill="white"/>
</g>
<defs>
<linearGradient id="paint0_linear_272_1990" x1="15.9989" y1="31.4462" x2="15.9989" y2="0.554027" gradientUnits="userSpaceOnUse">
<stop stop-color="#20B038"/>
<stop offset="1" stop-color="#60D66A"/>
</linearGradient>
<linearGradient id="paint1_linear_272_1990" x1="15.9977" y1="32" x2="15.9977" y2="0" gradientUnits="userSpaceOnUse">
<stop stop-color="#F9F9F9"/>
<stop offset="1" stop-color="white"/>
</linearGradient>
<clipPath id="clip0_272_1990">
<rect width="32" height="32" fill="white"/>
</clipPath>
</defs>
</svg>
