<svg width="20" height="20" viewBox="0 0 20 20" fill="none" xmlns="http://www.w3.org/2000/svg">
<path d="M19.1668 9.31242H17.2968C16.9668 5.81992 14.1802 3.02409 10.6877 2.70325V0.833252C10.6877 0.457419 10.376 0.145752 10.0002 0.145752C9.62433 0.145752 9.31266 0.457419 9.31266 0.833252V2.70325C5.82016 3.03325 3.02433 5.81992 2.7035 9.31242H0.833496C0.457663 9.31242 0.145996 9.62409 0.145996 9.99992C0.145996 10.3758 0.457663 10.6874 0.833496 10.6874H2.7035C3.0335 14.1799 5.82016 16.9758 9.31266 17.2966V19.1666C9.31266 19.5424 9.62433 19.8541 10.0002 19.8541C10.376 19.8541 10.6877 19.5424 10.6877 19.1666V17.2966C14.1802 16.9666 16.976 14.1799 17.2968 10.6874H19.1668C19.5427 10.6874 19.8543 10.3758 19.8543 9.99992C19.8543 9.62409 19.5427 9.31242 19.1668 9.31242ZM10.0002 12.8599C8.4235 12.8599 7.14016 11.5766 7.14016 9.99992C7.14016 8.42325 8.4235 7.13992 10.0002 7.13992C11.5768 7.13992 12.8602 8.42325 12.8602 9.99992C12.8602 11.5766 11.5768 12.8599 10.0002 12.8599Z" fill="#2D2D2D"/>
</svg>
