<svg width="22" height="22" viewBox="0 0 22 22" fill="none" xmlns="http://www.w3.org/2000/svg">
<path d="M1 10.7308C1 9.03877 1 8.19275 1.39209 7.44909C1.78418 6.70544 2.52052 6.15485 3.99322 5.05369L5.42179 3.98552C8.08367 1.99517 9.41461 1 11 1C12.5854 1 13.9163 1.99517 16.5782 3.98552L18.0068 5.05369C19.4795 6.15485 20.2158 6.70544 20.6079 7.44909C21 8.19275 21 9.03877 21 10.7308V16.0152C21 18.3651 21 19.54 20.1632 20.27C19.3263 21 17.9795 21 15.2857 21H6.71429C4.02055 21 2.67368 21 1.83684 20.27C1 19.54 1 18.3651 1 16.0152V10.7308Z" stroke="white" stroke-width="1.5"/>
<path d="M14.125 21V14.5C14.125 13.9477 13.6773 13.5 13.125 13.5H8.875C8.32272 13.5 7.875 13.9477 7.875 14.5V21" stroke="white" stroke-width="1.5" stroke-linecap="round" stroke-linejoin="round"/>
</svg>
