<svg width="17" height="17" viewBox="0 0 17 17" fill="none" xmlns="http://www.w3.org/2000/svg">
<path d="M13.5004 13.2245L11.9846 10.2L10.4688 13.2245" stroke="#ABABAB" stroke-linecap="round" stroke-linejoin="round"/>
<path d="M10.7451 12.6863H13.2385" stroke="#ABABAB" stroke-linecap="round" stroke-linejoin="round"/>
<path d="M11.9851 15.5834C10.0017 15.5834 8.38672 13.9754 8.38672 11.985C8.38672 10.0017 9.99464 8.38672 11.9851 8.38672C13.9684 8.38672 15.5834 9.9946 15.5834 11.985C15.5834 13.9754 13.9755 15.5834 11.9851 15.5834Z" stroke="#ABABAB" stroke-linecap="round" stroke-linejoin="round"/>
<path d="M3.55616 1.41675H6.33283C7.79908 1.41675 8.50741 2.1251 8.472 3.55593V6.33258C8.50741 7.79883 7.79908 8.50718 6.33283 8.47176H3.55616C2.12533 8.5001 1.41699 7.79174 1.41699 6.32549V3.54884C1.41699 2.12509 2.12533 1.41675 3.55616 1.41675Z" stroke="#ABABAB" stroke-linecap="round" stroke-linejoin="round"/>
<path d="M6.38169 4.1438H3.50586" stroke="#ABABAB" stroke-linecap="round" stroke-linejoin="round"/>
<path d="M4.93652 3.66211V4.14377" stroke="#ABABAB" stroke-linecap="round" stroke-linejoin="round"/>
<path d="M5.65944 4.13672C5.65944 5.3763 4.68902 6.38212 3.49902 6.38212" stroke="#ABABAB" stroke-linecap="round" stroke-linejoin="round"/>
<path d="M6.3817 6.38217C5.86462 6.38217 5.39712 6.10591 5.07129 5.66675" stroke="#ABABAB" stroke-linecap="round" stroke-linejoin="round"/>
<path d="M1.41699 10.625C1.41699 13.3663 3.63408 15.5833 6.37533 15.5833L5.63157 14.3438" stroke="#ABABAB" stroke-linecap="round" stroke-linejoin="round"/>
<path d="M15.5833 6.37508C15.5833 3.63383 13.3663 1.41675 10.625 1.41675L11.3688 2.65633" stroke="#ABABAB" stroke-linecap="round" stroke-linejoin="round"/>
</svg>
