<svg width="16" height="16" viewBox="0 0 16 16" fill="none" xmlns="http://www.w3.org/2000/svg">
<g clip-path="url(#clip0_181_3281)">
<path d="M8 6.4001C7.68483 6.4001 7.37274 6.46218 7.08156 6.58279C6.79038 6.7034 6.5258 6.88018 6.30294 7.10304C6.08008 7.3259 5.9033 7.59048 5.78269 7.88166C5.66208 8.17284 5.6 8.48493 5.6 8.8001C5.6 9.11527 5.66208 9.42736 5.78269 9.71854C5.9033 10.0097 6.08008 10.2743 6.30294 10.4972C6.5258 10.72 6.79038 10.8968 7.08156 11.0174C7.37274 11.138 7.68483 11.2001 8 11.2001C8.63652 11.2001 9.24697 10.9472 9.69706 10.4972C10.1471 10.0471 10.4 9.43662 10.4 8.8001C10.4 8.16358 10.1471 7.55313 9.69706 7.10304C9.24697 6.65295 8.63652 6.4001 8 6.4001ZM14.4 4.0001H12.48C12.3418 3.99379 12.2085 3.94729 12.0964 3.86628C11.9842 3.78528 11.8982 3.6733 11.8488 3.5441L11.352 2.0553C11.3023 1.92624 11.216 1.81446 11.1038 1.73362C10.9915 1.65278 10.8582 1.60638 10.72 1.6001H5.28C5.016 1.6001 4.7312 1.8049 4.6488 2.0545L4.1512 3.5441C4.10172 3.67325 4.01566 3.78517 3.90355 3.86616C3.79144 3.94715 3.65815 3.99369 3.52 4.0001H1.6C0.72 4.0001 0 4.7201 0 5.6001V12.8001C0 13.6801 0.72 14.4001 1.6 14.4001H14.4C15.28 14.4001 16 13.6801 16 12.8001V5.6001C16 4.7201 15.28 4.0001 14.4 4.0001ZM8 12.8001C6.93913 12.8001 5.92172 12.3787 5.17157 11.6285C4.42143 10.8784 4 9.86096 4 8.8001C4 7.73923 4.42143 6.72182 5.17157 5.97167C5.92172 5.22152 6.93913 4.8001 8 4.8001C9.06087 4.8001 10.0783 5.22152 10.8284 5.97167C11.5786 6.72182 12 7.73923 12 8.8001C12 9.86096 11.5786 10.8784 10.8284 11.6285C10.0783 12.3787 9.06087 12.8001 8 12.8001ZM14 6.5601C13.8515 6.5601 13.709 6.5011 13.604 6.39608C13.499 6.29106 13.44 6.14862 13.44 6.0001C13.44 5.85158 13.499 5.70914 13.604 5.60412C13.709 5.4991 13.8515 5.4401 14 5.4401C14.1485 5.4401 14.291 5.4991 14.396 5.60412C14.501 5.70914 14.56 5.85158 14.56 6.0001C14.56 6.14862 14.501 6.29106 14.396 6.39608C14.291 6.5011 14.1485 6.5601 14 6.5601Z" fill="white"/>
</g>
<defs>
<clipPath id="clip0_181_3281">
<rect width="16" height="16" fill="white"/>
</clipPath>
</defs>
</svg>
